<svg width="1440" height="340" viewBox="0 0 1440 340" fill="none" xmlns="http://www.w3.org/2000/svg">
<rect width="1440" height="340" fill="white"/>
<path d="M173.856 67.7363C173.007 67.7363 172.223 67.5905 171.505 67.2988C170.791 67.0072 170.169 66.5983 169.637 66.0723C169.111 65.5462 168.703 64.9264 168.411 64.2129C168.124 63.4941 167.981 62.7129 167.981 61.8691C167.981 61.0202 168.127 60.2389 168.419 59.5254C168.71 58.8066 169.119 58.1842 169.645 57.6582C170.177 57.1322 170.799 56.7233 171.512 56.4316C172.231 56.14 173.012 55.9941 173.856 55.9941C174.674 55.9941 175.437 56.1426 176.145 56.4395C176.859 56.7311 177.484 57.1426 178.02 57.6738C178.557 58.1999 178.976 58.8197 179.278 59.5332C179.58 60.2467 179.731 61.0254 179.731 61.8691C179.731 62.7129 179.585 63.4941 179.294 64.2129C179.002 64.9264 178.591 65.5462 178.059 66.0723C177.533 66.5983 176.911 67.0072 176.192 67.2988C175.479 67.5905 174.7 67.7363 173.856 67.7363ZM174.106 65.4395C173.054 65.4395 172.262 65.1165 171.731 64.4707C171.2 63.8197 170.934 62.9525 170.934 61.8691C170.934 61.1764 171.059 60.5645 171.309 60.0332C171.565 59.4967 171.932 59.0775 172.411 58.7754C172.895 58.4681 173.481 58.3145 174.169 58.3145C174.512 58.3145 174.854 58.3561 175.192 58.4395C175.531 58.5228 175.848 58.64 176.145 58.791L175.708 59.6973C175.447 59.5618 175.19 59.4603 174.934 59.3926C174.679 59.3197 174.429 59.2832 174.184 59.2832C173.523 59.2832 173.01 59.515 172.645 59.9785C172.281 60.4368 172.098 61.0671 172.098 61.8691C172.098 62.7025 172.262 63.3431 172.591 63.791C172.924 64.2389 173.447 64.4629 174.161 64.4629C174.421 64.4629 174.7 64.429 174.997 64.3613C175.299 64.2936 175.585 64.2051 175.856 64.0957V65.0488C175.601 65.1634 175.338 65.2572 175.067 65.3301C174.796 65.403 174.476 65.4395 174.106 65.4395ZM173.856 66.9395C174.549 66.9395 175.197 66.8145 175.802 66.5645C176.411 66.3145 176.945 65.9629 177.403 65.5098C177.861 65.0514 178.221 64.515 178.481 63.9004C178.742 63.2806 178.872 62.6035 178.872 61.8691C178.872 61.1712 178.747 60.5176 178.497 59.9082C178.252 59.2988 177.906 58.7598 177.458 58.291C177.01 57.8223 176.479 57.4577 175.864 57.1973C175.255 56.9316 174.585 56.7988 173.856 56.7988C173.127 56.7988 172.455 56.9238 171.841 57.1738C171.231 57.4238 170.7 57.778 170.247 58.2363C169.799 58.6895 169.45 59.2259 169.2 59.8457C168.955 60.4603 168.833 61.1348 168.833 61.8691C168.833 62.5671 168.955 63.2233 169.2 63.8379C169.445 64.4473 169.791 64.9863 170.239 65.4551C170.692 65.9186 171.223 66.2832 171.833 66.5488C172.447 66.8092 173.122 66.9395 173.856 66.9395ZM192.942 67.5801H185.458V66.4941L188.512 63.3926C189.08 62.8197 189.557 62.3092 189.942 61.8613C190.333 61.4134 190.63 60.9733 190.833 60.541C191.036 60.1035 191.137 59.6243 191.137 59.1035C191.137 58.4577 190.945 57.9655 190.559 57.627C190.179 57.2832 189.677 57.1113 189.052 57.1113C188.505 57.1113 188.02 57.2051 187.598 57.3926C187.177 57.5801 186.744 57.8457 186.302 58.1895L185.606 57.3145C185.908 57.0592 186.236 56.8327 186.591 56.6348C186.95 56.4368 187.333 56.2806 187.739 56.166C188.15 56.0514 188.588 55.9941 189.052 55.9941C189.755 55.9941 190.361 56.1165 190.872 56.3613C191.382 56.6061 191.775 56.9551 192.052 57.4082C192.333 57.8613 192.473 58.4004 192.473 59.0254C192.473 59.6296 192.354 60.1921 192.114 60.7129C191.874 61.2285 191.538 61.7415 191.106 62.252C190.674 62.7572 190.169 63.2936 189.591 63.8613L187.106 66.3379V66.3926H192.942V67.5801ZM202.161 61.8535C202.161 62.7806 202.091 63.6087 201.95 64.3379C201.809 65.0671 201.588 65.6842 201.286 66.1895C200.984 66.6947 200.593 67.0801 200.114 67.3457C199.635 67.6061 199.059 67.7363 198.387 67.7363C197.538 67.7363 196.835 67.5046 196.278 67.041C195.726 66.5775 195.312 65.9082 195.036 65.0332C194.765 64.153 194.63 63.0931 194.63 61.8535C194.63 60.6348 194.752 59.5879 194.997 58.7129C195.247 57.8327 195.648 57.1582 196.2 56.6895C196.752 56.2155 197.481 55.9785 198.387 55.9785C199.247 55.9785 199.955 56.2129 200.512 56.6816C201.07 57.1452 201.484 57.8171 201.755 58.6973C202.025 59.5723 202.161 60.6243 202.161 61.8535ZM195.934 61.8535C195.934 62.916 196.015 63.8014 196.177 64.5098C196.338 65.2181 196.598 65.7493 196.958 66.1035C197.322 66.4525 197.799 66.627 198.387 66.627C198.976 66.627 199.45 66.4525 199.809 66.1035C200.174 65.7546 200.437 65.2259 200.598 64.5176C200.765 63.8092 200.848 62.9212 200.848 61.8535C200.848 60.8066 200.768 59.9316 200.606 59.2285C200.445 58.5202 200.184 57.9889 199.825 57.6348C199.466 57.2754 198.986 57.0957 198.387 57.0957C197.788 57.0957 197.309 57.2754 196.95 57.6348C196.591 57.9889 196.33 58.5202 196.169 59.2285C196.012 59.9316 195.934 60.8066 195.934 61.8535ZM211.255 67.5801H203.77V66.4941L206.825 63.3926C207.393 62.8197 207.869 62.3092 208.255 61.8613C208.645 61.4134 208.942 60.9733 209.145 60.541C209.348 60.1035 209.45 59.6243 209.45 59.1035C209.45 58.4577 209.257 57.9655 208.872 57.627C208.492 57.2832 207.989 57.1113 207.364 57.1113C206.817 57.1113 206.333 57.2051 205.911 57.3926C205.489 57.5801 205.057 57.8457 204.614 58.1895L203.919 57.3145C204.221 57.0592 204.549 56.8327 204.903 56.6348C205.262 56.4368 205.645 56.2806 206.052 56.166C206.463 56.0514 206.9 55.9941 207.364 55.9941C208.067 55.9941 208.674 56.1165 209.184 56.3613C209.695 56.6061 210.088 56.9551 210.364 57.4082C210.645 57.8613 210.786 58.4004 210.786 59.0254C210.786 59.6296 210.666 60.1921 210.427 60.7129C210.187 61.2285 209.851 61.7415 209.419 62.252C208.986 62.7572 208.481 63.2936 207.903 63.8613L205.419 66.3379V66.3926H211.255V67.5801ZM213.044 62.6973C213.044 62.0098 213.091 61.3379 213.184 60.6816C213.283 60.0254 213.447 59.416 213.677 58.8535C213.906 58.2858 214.218 57.7884 214.614 57.3613C215.01 56.9342 215.502 56.6009 216.091 56.3613C216.684 56.1165 217.395 55.9941 218.223 55.9941C218.458 55.9941 218.71 56.0072 218.981 56.0332C219.252 56.054 219.476 56.0905 219.653 56.1426V57.2598C219.46 57.1921 219.239 57.1426 218.989 57.1113C218.744 57.0801 218.497 57.0645 218.247 57.0645C217.278 57.0645 216.515 57.2754 215.958 57.6973C215.406 58.1191 215.007 58.6921 214.762 59.416C214.518 60.1348 214.377 60.9447 214.341 61.8457H214.427C214.588 61.5853 214.794 61.3509 215.044 61.1426C215.294 60.929 215.596 60.7598 215.95 60.6348C216.309 60.5098 216.726 60.4473 217.2 60.4473C217.867 60.4473 218.447 60.5827 218.942 60.8535C219.442 61.1243 219.828 61.5176 220.098 62.0332C220.374 62.5488 220.512 63.1738 220.512 63.9082C220.512 64.6947 220.367 65.3743 220.075 65.9473C219.783 66.5202 219.367 66.9629 218.825 67.2754C218.288 67.5827 217.648 67.7363 216.903 67.7363C216.346 67.7363 215.833 67.6296 215.364 67.416C214.895 67.2025 214.486 66.8848 214.137 66.4629C213.794 66.041 213.525 65.5176 213.333 64.8926C213.14 64.2624 213.044 63.5306 213.044 62.6973ZM216.887 66.6426C217.596 66.6426 218.163 66.416 218.591 65.9629C219.018 65.5098 219.231 64.8249 219.231 63.9082C219.231 63.1582 219.041 62.5645 218.661 62.127C218.281 61.6895 217.708 61.4707 216.942 61.4707C216.421 61.4707 215.968 61.5801 215.583 61.7988C215.197 62.0124 214.898 62.2832 214.684 62.6113C214.471 62.9395 214.364 63.2728 214.364 63.6113C214.364 63.9551 214.413 64.304 214.512 64.6582C214.617 65.0124 214.773 65.3405 214.981 65.6426C215.19 65.9447 215.453 66.1868 215.77 66.3691C216.088 66.5514 216.46 66.6426 216.887 66.6426ZM230.872 58.8613C231.887 58.8613 232.656 59.1113 233.177 59.6113C233.697 60.1061 233.958 60.903 233.958 62.002V67.5801H232.677V62.0879C232.677 61.3743 232.512 60.8405 232.184 60.4863C231.861 60.1322 231.364 59.9551 230.692 59.9551C229.744 59.9551 229.078 60.2233 228.692 60.7598C228.307 61.2962 228.114 62.0749 228.114 63.0957V67.5801H226.817V59.0176H227.864L228.059 60.252H228.13C228.312 59.9499 228.544 59.6973 228.825 59.4941C229.106 59.2858 229.421 59.1296 229.77 59.0254C230.119 58.916 230.486 58.8613 230.872 58.8613ZM240.653 58.8613C241.721 58.8613 242.572 59.2285 243.208 59.9629C243.843 60.6973 244.161 61.8014 244.161 63.2754C244.161 64.2493 244.015 65.0671 243.723 65.7285C243.432 66.39 243.02 66.89 242.489 67.2285C241.963 67.5671 241.341 67.7363 240.622 67.7363C240.169 67.7363 239.77 67.6764 239.427 67.5566C239.083 67.4368 238.788 67.2754 238.544 67.0723C238.299 66.8691 238.096 66.6478 237.934 66.4082H237.841C237.856 66.6113 237.874 66.8561 237.895 67.1426C237.921 67.429 237.934 67.679 237.934 67.8926V71.4082H236.63V59.0176H237.7L237.872 60.2832H237.934C238.101 60.0228 238.304 59.7858 238.544 59.5723C238.783 59.3535 239.075 59.1816 239.419 59.0566C239.768 58.9264 240.179 58.8613 240.653 58.8613ZM240.427 59.9551C239.833 59.9551 239.354 60.0697 238.989 60.2988C238.63 60.528 238.367 60.8717 238.2 61.3301C238.033 61.7832 237.945 62.3535 237.934 63.041V63.291C237.934 64.015 238.012 64.627 238.169 65.127C238.33 65.627 238.593 66.0072 238.958 66.2676C239.328 66.528 239.822 66.6582 240.442 66.6582C240.973 66.6582 241.416 66.515 241.77 66.2285C242.124 65.9421 242.387 65.5436 242.559 65.0332C242.736 64.5176 242.825 63.9264 242.825 63.2598C242.825 62.2493 242.627 61.4473 242.231 60.8535C241.841 60.2546 241.239 59.9551 240.427 59.9551ZM247.723 55.4238V59.0566C247.723 59.265 247.718 59.4759 247.708 59.6895C247.697 59.8978 247.679 60.0905 247.653 60.2676H247.739C247.916 59.9655 248.14 59.7129 248.411 59.5098C248.687 59.3014 248.999 59.1452 249.348 59.041C249.697 58.9316 250.067 58.877 250.458 58.877C251.145 58.877 251.718 58.9863 252.177 59.2051C252.64 59.4238 252.986 59.7624 253.216 60.2207C253.45 60.679 253.567 61.2728 253.567 62.002V67.5801H252.286V62.0879C252.286 61.3743 252.122 60.8405 251.794 60.4863C251.471 60.1322 250.973 59.9551 250.302 59.9551C249.666 59.9551 249.158 60.0775 248.778 60.3223C248.403 60.5618 248.132 60.916 247.966 61.3848C247.804 61.8535 247.723 62.4264 247.723 63.1035V67.5801H246.427V55.4238H247.723ZM259.536 58.8613C260.265 58.8613 260.89 59.0228 261.411 59.3457C261.932 59.6686 262.33 60.1217 262.606 60.7051C262.882 61.2832 263.02 61.9603 263.02 62.7363V63.541H257.106C257.122 64.5462 257.372 65.3118 257.856 65.8379C258.341 66.3639 259.023 66.627 259.903 66.627C260.445 66.627 260.924 66.5775 261.341 66.4785C261.757 66.3796 262.19 66.2337 262.637 66.041V67.1816C262.205 67.3743 261.775 67.515 261.348 67.6035C260.927 67.6921 260.427 67.7363 259.848 67.7363C259.025 67.7363 258.307 67.5697 257.692 67.2363C257.083 66.8978 256.609 66.403 256.27 65.752C255.932 65.1009 255.762 64.304 255.762 63.3613C255.762 62.4395 255.916 61.6426 256.223 60.9707C256.536 60.2936 256.973 59.7728 257.536 59.4082C258.104 59.0436 258.77 58.8613 259.536 58.8613ZM259.52 59.9238C258.828 59.9238 258.275 60.1504 257.864 60.6035C257.453 61.0566 257.208 61.6895 257.13 62.502H261.661C261.656 61.9915 261.575 61.5436 261.419 61.1582C261.268 60.7676 261.036 60.4655 260.723 60.252C260.411 60.0332 260.01 59.9238 259.52 59.9238ZM266.528 67.5801H265.223V55.4238H266.528V67.5801ZM273.294 58.8613C274.361 58.8613 275.213 59.2285 275.848 59.9629C276.484 60.6973 276.802 61.8014 276.802 63.2754C276.802 64.2493 276.656 65.0671 276.364 65.7285C276.072 66.39 275.661 66.89 275.13 67.2285C274.604 67.5671 273.981 67.7363 273.262 67.7363C272.809 67.7363 272.411 67.6764 272.067 67.5566C271.723 67.4368 271.429 67.2754 271.184 67.0723C270.94 66.8691 270.736 66.6478 270.575 66.4082H270.481C270.497 66.6113 270.515 66.8561 270.536 67.1426C270.562 67.429 270.575 67.679 270.575 67.8926V71.4082H269.27V59.0176H270.341L270.512 60.2832H270.575C270.742 60.0228 270.945 59.7858 271.184 59.5723C271.424 59.3535 271.716 59.1816 272.059 59.0566C272.408 58.9264 272.82 58.8613 273.294 58.8613ZM273.067 59.9551C272.473 59.9551 271.994 60.0697 271.63 60.2988C271.27 60.528 271.007 60.8717 270.841 61.3301C270.674 61.7832 270.585 62.3535 270.575 63.041V63.291C270.575 64.015 270.653 64.627 270.809 65.127C270.971 65.627 271.234 66.0072 271.598 66.2676C271.968 66.528 272.463 66.6582 273.083 66.6582C273.614 66.6582 274.057 66.515 274.411 66.2285C274.765 65.9421 275.028 65.5436 275.2 65.0332C275.377 64.5176 275.466 63.9264 275.466 63.2598C275.466 62.2493 275.268 61.4473 274.872 60.8535C274.481 60.2546 273.88 59.9551 273.067 59.9551ZM282.364 58.8613C283.093 58.8613 283.718 59.0228 284.239 59.3457C284.76 59.6686 285.158 60.1217 285.434 60.7051C285.71 61.2832 285.848 61.9603 285.848 62.7363V63.541H279.934C279.95 64.5462 280.2 65.3118 280.684 65.8379C281.169 66.3639 281.851 66.627 282.731 66.627C283.273 66.627 283.752 66.5775 284.169 66.4785C284.585 66.3796 285.018 66.2337 285.466 66.041V67.1816C285.033 67.3743 284.604 67.515 284.177 67.6035C283.755 67.6921 283.255 67.7363 282.677 67.7363C281.854 67.7363 281.135 67.5697 280.52 67.2363C279.911 66.8978 279.437 66.403 279.098 65.752C278.76 65.1009 278.591 64.304 278.591 63.3613C278.591 62.4395 278.744 61.6426 279.052 60.9707C279.364 60.2936 279.802 59.7728 280.364 59.4082C280.932 59.0436 281.598 58.8613 282.364 58.8613ZM282.348 59.9238C281.656 59.9238 281.104 60.1504 280.692 60.6035C280.281 61.0566 280.036 61.6895 279.958 62.502H284.489C284.484 61.9915 284.403 61.5436 284.247 61.1582C284.096 60.7676 283.864 60.4655 283.552 60.252C283.239 60.0332 282.838 59.9238 282.348 59.9238ZM291.942 58.8613C292.114 58.8613 292.294 58.8717 292.481 58.8926C292.669 58.9082 292.835 58.9316 292.981 58.9629L292.817 60.166C292.677 60.1296 292.52 60.1009 292.348 60.0801C292.177 60.0592 292.015 60.0488 291.864 60.0488C291.52 60.0488 291.195 60.1191 290.887 60.2598C290.585 60.3952 290.32 60.5931 290.091 60.8535C289.861 61.1087 289.682 61.4186 289.552 61.7832C289.421 62.1426 289.356 62.5436 289.356 62.9863V67.5801H288.052V59.0176H289.13L289.27 60.5957H289.325C289.502 60.278 289.716 59.9889 289.966 59.7285C290.216 59.4629 290.505 59.252 290.833 59.0957C291.166 58.9395 291.536 58.8613 291.942 58.8613ZM294.403 66.7676C294.403 66.403 294.492 66.1452 294.669 65.9941C294.846 65.8379 295.062 65.7598 295.317 65.7598C295.583 65.7598 295.807 65.8379 295.989 65.9941C296.171 66.1452 296.262 66.403 296.262 66.7676C296.262 67.127 296.171 67.39 295.989 67.5566C295.807 67.7181 295.583 67.7988 295.317 67.7988C295.062 67.7988 294.846 67.7181 294.669 67.5566C294.492 67.39 294.403 67.127 294.403 66.7676ZM302.231 67.7363C301.46 67.7363 300.781 67.5775 300.192 67.2598C299.604 66.9421 299.145 66.4577 298.817 65.8066C298.489 65.1556 298.325 64.3353 298.325 63.3457C298.325 62.3092 298.497 61.4629 298.841 60.8066C299.19 60.1452 299.669 59.6556 300.278 59.3379C300.887 59.0202 301.58 58.8613 302.356 58.8613C302.783 58.8613 303.195 58.9056 303.591 58.9941C303.992 59.0775 304.32 59.1842 304.575 59.3145L304.184 60.4004C303.924 60.2962 303.622 60.2025 303.278 60.1191C302.94 60.0358 302.622 59.9941 302.325 59.9941C301.731 59.9941 301.236 60.1217 300.841 60.377C300.45 60.6322 300.156 61.0072 299.958 61.502C299.765 61.9967 299.669 62.6061 299.669 63.3301C299.669 64.0228 299.762 64.6139 299.95 65.1035C300.143 65.5931 300.427 65.9681 300.802 66.2285C301.182 66.4837 301.656 66.6113 302.223 66.6113C302.677 66.6113 303.085 66.5645 303.45 66.4707C303.815 66.3717 304.145 66.2572 304.442 66.127V67.2832C304.156 67.429 303.835 67.541 303.481 67.6191C303.132 67.6973 302.716 67.7363 302.231 67.7363ZM313.856 63.2832C313.856 63.9863 313.765 64.6139 313.583 65.166C313.4 65.7181 313.137 66.1842 312.794 66.5645C312.45 66.9447 312.033 67.2363 311.544 67.4395C311.059 67.6374 310.51 67.7363 309.895 67.7363C309.322 67.7363 308.796 67.6374 308.317 67.4395C307.843 67.2363 307.432 66.9447 307.083 66.5645C306.739 66.1842 306.471 65.7181 306.278 65.166C306.091 64.6139 305.997 63.9863 305.997 63.2832C305.997 62.3457 306.156 61.5488 306.473 60.8926C306.791 60.2311 307.244 59.7285 307.833 59.3848C308.427 59.0358 309.132 58.8613 309.95 58.8613C310.731 58.8613 311.413 59.0358 311.997 59.3848C312.585 59.7337 313.041 60.2389 313.364 60.9004C313.692 61.5566 313.856 62.3509 313.856 63.2832ZM307.341 63.2832C307.341 63.9707 307.432 64.5671 307.614 65.0723C307.796 65.5775 308.078 65.9681 308.458 66.2441C308.838 66.5202 309.328 66.6582 309.927 66.6582C310.52 66.6582 311.007 66.5202 311.387 66.2441C311.773 65.9681 312.057 65.5775 312.239 65.0723C312.421 64.5671 312.512 63.9707 312.512 63.2832C312.512 62.6009 312.421 62.0124 312.239 61.5176C312.057 61.0176 311.775 60.6322 311.395 60.3613C311.015 60.0905 310.523 59.9551 309.919 59.9551C309.028 59.9551 308.374 60.2493 307.958 60.8379C307.546 61.4264 307.341 62.2415 307.341 63.2832ZM325.395 58.8613C326.338 58.8613 327.049 59.1087 327.528 59.6035C328.007 60.0931 328.247 60.8822 328.247 61.9707V67.5801H326.966V62.0332C326.966 61.3405 326.815 60.8223 326.512 60.4785C326.216 60.1296 325.773 59.9551 325.184 59.9551C324.356 59.9551 323.755 60.1947 323.38 60.6738C323.005 61.153 322.817 61.8587 322.817 62.791V67.5801H321.528V62.0332C321.528 61.5697 321.46 61.1842 321.325 60.877C321.195 60.5697 320.997 60.3405 320.731 60.1895C320.471 60.0332 320.14 59.9551 319.739 59.9551C319.171 59.9551 318.716 60.0723 318.372 60.3066C318.028 60.541 317.778 60.89 317.622 61.3535C317.471 61.8118 317.395 62.377 317.395 63.0488V67.5801H316.098V59.0176H317.145L317.341 60.2285H317.411C317.583 59.9316 317.799 59.6816 318.059 59.4785C318.32 59.2754 318.611 59.1217 318.934 59.0176C319.257 58.9134 319.601 58.8613 319.966 58.8613C320.617 58.8613 321.161 58.9837 321.598 59.2285C322.041 59.4681 322.361 59.8353 322.559 60.3301H322.63C322.911 59.8353 323.296 59.4681 323.786 59.2285C324.275 58.9837 324.812 58.8613 325.395 58.8613Z" fill="#1F2937"/>
<rect width="540.8" height="340" transform="translate(732)" fill="white"/>
<path d="M873.548 68V56.5781H875.969V66H880.602V68H873.548ZM886.009 59.1016C886.816 59.1016 887.511 59.2578 888.094 59.5703C888.678 59.8776 889.128 60.3255 889.446 60.9141C889.764 61.5026 889.923 62.2214 889.923 63.0703V64.2266H884.29C884.316 64.8984 884.516 65.4271 884.891 65.8125C885.272 66.1927 885.798 66.3828 886.469 66.3828C887.027 66.3828 887.537 66.3255 888.001 66.2109C888.464 66.0964 888.941 65.9245 889.43 65.6953V67.5391C888.998 67.7526 888.545 67.9089 888.071 68.0078C887.602 68.1068 887.032 68.1562 886.36 68.1562C885.485 68.1562 884.709 67.9948 884.032 67.6719C883.36 67.349 882.831 66.8568 882.446 66.1953C882.066 65.5339 881.876 64.7005 881.876 63.6953C881.876 62.6745 882.048 61.8255 882.391 61.1484C882.74 60.4661 883.225 59.9557 883.844 59.6172C884.464 59.2734 885.186 59.1016 886.009 59.1016ZM886.024 60.7969C885.561 60.7969 885.175 60.9453 884.868 61.2422C884.566 61.5391 884.391 62.0052 884.344 62.6406H887.688C887.683 62.2865 887.618 61.9714 887.493 61.6953C887.373 61.4193 887.191 61.2005 886.946 61.0391C886.706 60.8776 886.399 60.7969 886.024 60.7969ZM894.415 71.8438C893.196 71.8438 892.264 71.6302 891.618 71.2031C890.977 70.7812 890.657 70.1875 890.657 69.4219C890.657 68.8958 890.821 68.4557 891.149 68.1016C891.477 67.7474 891.959 67.4948 892.594 67.3438C892.35 67.2396 892.136 67.0703 891.954 66.8359C891.772 66.5964 891.68 66.3438 891.68 66.0781C891.68 65.7448 891.777 65.4688 891.969 65.25C892.162 65.026 892.441 64.8073 892.805 64.5938C892.347 64.3958 891.983 64.0781 891.712 63.6406C891.446 63.2031 891.313 62.6875 891.313 62.0938C891.313 61.4583 891.451 60.9193 891.727 60.4766C892.009 60.0286 892.415 59.6875 892.946 59.4531C893.483 59.2188 894.134 59.1016 894.899 59.1016C895.061 59.1016 895.248 59.112 895.462 59.1328C895.675 59.1536 895.871 59.1771 896.048 59.2031C896.23 59.2292 896.352 59.25 896.415 59.2656H899.462V60.4766L898.094 60.8281C898.219 61.0208 898.313 61.2266 898.376 61.4453C898.438 61.6641 898.469 61.8958 898.469 62.1406C898.469 63.0781 898.141 63.8099 897.485 64.3359C896.834 64.8568 895.928 65.1172 894.766 65.1172C894.49 65.1016 894.23 65.0807 893.985 65.0547C893.865 65.1484 893.774 65.2474 893.712 65.3516C893.649 65.4557 893.618 65.5651 893.618 65.6797C893.618 65.7943 893.665 65.8906 893.759 65.9688C893.858 66.0417 894.003 66.099 894.196 66.1406C894.394 66.1771 894.639 66.1953 894.93 66.1953H896.415C897.373 66.1953 898.102 66.401 898.602 66.8125C899.108 67.224 899.36 67.8281 899.36 68.625C899.36 69.6458 898.933 70.4375 898.079 71C897.23 71.5625 896.009 71.8438 894.415 71.8438ZM894.516 70.2891C895.084 70.2891 895.571 70.2344 895.977 70.125C896.389 70.0208 896.704 69.8698 896.923 69.6719C897.141 69.4792 897.251 69.2474 897.251 68.9766C897.251 68.7578 897.186 68.5833 897.055 68.4531C896.93 68.3281 896.738 68.2396 896.477 68.1875C896.222 68.1354 895.894 68.1094 895.493 68.1094H894.259C893.967 68.1094 893.704 68.1562 893.469 68.25C893.24 68.3438 893.058 68.474 892.923 68.6406C892.787 68.8125 892.719 69.0104 892.719 69.2344C892.719 69.5625 892.876 69.8203 893.188 70.0078C893.506 70.1953 893.949 70.2891 894.516 70.2891ZM894.899 63.6641C895.347 63.6641 895.675 63.526 895.884 63.25C896.092 62.974 896.196 62.599 896.196 62.125C896.196 61.599 896.087 61.2057 895.868 60.9453C895.654 60.6797 895.331 60.5469 894.899 60.5469C894.462 60.5469 894.134 60.6797 893.915 60.9453C893.696 61.2057 893.587 61.599 893.587 62.125C893.587 62.599 893.693 62.974 893.907 63.25C894.126 63.526 894.456 63.6641 894.899 63.6641ZM904.485 59.0859C905.657 59.0859 906.555 59.3411 907.18 59.8516C907.805 60.362 908.118 61.138 908.118 62.1797V68H906.454L905.993 66.8125H905.93C905.68 67.125 905.425 67.3802 905.165 67.5781C904.904 67.776 904.605 67.9219 904.266 68.0156C903.928 68.1094 903.516 68.1562 903.032 68.1562C902.516 68.1562 902.053 68.0573 901.641 67.8594C901.235 67.6615 900.915 67.3594 900.68 66.9531C900.446 66.5417 900.329 66.0208 900.329 65.3906C900.329 64.4635 900.654 63.7812 901.305 63.3438C901.956 62.901 902.933 62.6562 904.235 62.6094L905.751 62.5625V62.1797C905.751 61.7214 905.631 61.3854 905.391 61.1719C905.152 60.9583 904.818 60.8516 904.391 60.8516C903.969 60.8516 903.555 60.9115 903.149 61.0312C902.743 61.151 902.337 61.3021 901.93 61.4844L901.141 59.875C901.605 59.6302 902.123 59.4375 902.696 59.2969C903.274 59.1562 903.871 59.0859 904.485 59.0859ZM905.751 63.9531L904.829 63.9844C904.058 64.0052 903.522 64.1432 903.219 64.3984C902.923 64.6536 902.774 64.9896 902.774 65.4062C902.774 65.7708 902.881 66.0312 903.094 66.1875C903.308 66.3385 903.587 66.4141 903.93 66.4141C904.441 66.4141 904.871 66.263 905.219 65.9609C905.574 65.6589 905.751 65.2292 905.751 64.6719V63.9531ZM912.962 68H910.579V55.8438H912.962V68Z" fill="#0D5794"/>
<path d="M876.657 88.5781C878.131 88.5781 879.206 88.8672 879.884 89.4453C880.566 90.0182 880.907 90.8411 880.907 91.9141C880.907 92.3984 880.826 92.8594 880.665 93.2969C880.509 93.7292 880.253 94.112 879.899 94.4453C879.545 94.7734 879.079 95.0339 878.501 95.2266C877.928 95.4141 877.225 95.5078 876.391 95.5078H875.001V100H873.673V88.5781H876.657ZM876.532 89.7109H875.001V94.3672H876.243C876.972 94.3672 877.579 94.2891 878.063 94.1328C878.553 93.9766 878.92 93.724 879.165 93.375C879.41 93.0208 879.532 92.5521 879.532 91.9688C879.532 91.2083 879.29 90.6432 878.805 90.2734C878.321 89.8984 877.563 89.7109 876.532 89.7109ZM886.993 91.2812C887.165 91.2812 887.344 91.2917 887.532 91.3125C887.719 91.3281 887.886 91.3516 888.032 91.3828L887.868 92.5859C887.727 92.5495 887.571 92.5208 887.399 92.5C887.227 92.4792 887.066 92.4688 886.915 92.4688C886.571 92.4688 886.246 92.5391 885.938 92.6797C885.636 92.8151 885.371 93.013 885.141 93.2734C884.912 93.5286 884.733 93.8385 884.602 94.2031C884.472 94.5625 884.407 94.9635 884.407 95.4062V100H883.102V91.4375H884.18L884.321 93.0156H884.376C884.553 92.6979 884.766 92.4089 885.016 92.1484C885.266 91.8828 885.555 91.6719 885.884 91.5156C886.217 91.3594 886.587 91.2812 886.993 91.2812ZM890.946 91.4375V100H889.649V91.4375H890.946ZM890.313 88.2344C890.527 88.2344 890.709 88.3047 890.86 88.4453C891.016 88.5807 891.094 88.7943 891.094 89.0859C891.094 89.3724 891.016 89.5859 890.86 89.7266C890.709 89.8672 890.527 89.9375 890.313 89.9375C890.089 89.9375 889.902 89.8672 889.751 89.7266C889.605 89.5859 889.532 89.3724 889.532 89.0859C889.532 88.7943 889.605 88.5807 889.751 88.4453C889.902 88.3047 890.089 88.2344 890.313 88.2344ZM895.579 100L892.329 91.4375H893.719L895.602 96.6172C895.733 96.9714 895.865 97.362 896.001 97.7891C896.136 98.2161 896.23 98.5599 896.282 98.8203H896.337C896.399 98.5599 896.503 98.2161 896.649 97.7891C896.795 97.3568 896.928 96.9661 897.048 96.6172L898.93 91.4375H900.321L897.063 100H895.579ZM904.899 91.2969C905.92 91.2969 906.678 91.526 907.173 91.9844C907.667 92.4427 907.915 93.1745 907.915 94.1797V100H906.969L906.719 98.7344H906.657C906.417 99.0469 906.167 99.3099 905.907 99.5234C905.647 99.7318 905.344 99.8906 905.001 100C904.662 100.104 904.246 100.156 903.751 100.156C903.23 100.156 902.766 100.065 902.36 99.8828C901.959 99.7005 901.641 99.4245 901.407 99.0547C901.178 98.6849 901.063 98.2161 901.063 97.6484C901.063 96.7943 901.402 96.138 902.079 95.6797C902.756 95.2214 903.787 94.9714 905.173 94.9297L906.649 94.8672V94.3438C906.649 93.6042 906.49 93.0859 906.173 92.7891C905.855 92.4922 905.407 92.3438 904.829 92.3438C904.381 92.3438 903.954 92.4089 903.548 92.5391C903.141 92.6693 902.756 92.8229 902.391 93L901.993 92.0156C902.378 91.8177 902.821 91.6484 903.321 91.5078C903.821 91.3672 904.347 91.2969 904.899 91.2969ZM906.634 95.7812L905.329 95.8359C904.261 95.8776 903.509 96.0521 903.071 96.3594C902.634 96.6667 902.415 97.1016 902.415 97.6641C902.415 98.1536 902.563 98.5156 902.86 98.75C903.157 98.9844 903.55 99.1016 904.04 99.1016C904.8 99.1016 905.423 98.8906 905.907 98.4688C906.391 98.0469 906.634 97.4141 906.634 96.5703V95.7812ZM914.016 100.156C913.246 100.156 912.566 99.9974 911.977 99.6797C911.389 99.362 910.93 98.8776 910.602 98.2266C910.274 97.5755 910.11 96.7552 910.11 95.7656C910.11 94.7292 910.282 93.8828 910.626 93.2266C910.975 92.5651 911.454 92.0755 912.063 91.7578C912.673 91.4401 913.365 91.2812 914.141 91.2812C914.568 91.2812 914.98 91.3255 915.376 91.4141C915.777 91.4974 916.105 91.6042 916.36 91.7344L915.969 92.8203C915.709 92.7161 915.407 92.6224 915.063 92.5391C914.725 92.4557 914.407 92.4141 914.11 92.4141C913.516 92.4141 913.022 92.5417 912.626 92.7969C912.235 93.0521 911.941 93.4271 911.743 93.9219C911.55 94.4167 911.454 95.026 911.454 95.75C911.454 96.4427 911.548 97.0339 911.735 97.5234C911.928 98.013 912.212 98.388 912.587 98.6484C912.967 98.9036 913.441 99.0312 914.009 99.0312C914.462 99.0312 914.871 98.9844 915.235 98.8906C915.6 98.7917 915.93 98.6771 916.227 98.5469V99.7031C915.941 99.849 915.621 99.9609 915.266 100.039C914.917 100.117 914.501 100.156 914.016 100.156ZM916.907 91.4375H918.298L920.188 96.4062C920.298 96.6979 920.399 96.9792 920.493 97.25C920.587 97.5156 920.67 97.7708 920.743 98.0156C920.816 98.2604 920.873 98.4974 920.915 98.7266H920.969C921.042 98.4661 921.147 98.125 921.282 97.7031C921.417 97.276 921.563 96.8411 921.719 96.3984L923.509 91.4375H924.907L921.18 101.258C920.983 101.784 920.751 102.242 920.485 102.633C920.225 103.023 919.907 103.323 919.532 103.531C919.157 103.745 918.704 103.852 918.173 103.852C917.928 103.852 917.712 103.836 917.524 103.805C917.337 103.779 917.175 103.747 917.04 103.711V102.672C917.154 102.698 917.292 102.721 917.454 102.742C917.621 102.763 917.792 102.773 917.969 102.773C918.292 102.773 918.571 102.711 918.805 102.586C919.045 102.466 919.251 102.289 919.423 102.055C919.594 101.82 919.743 101.542 919.868 101.219L920.337 100.016L916.907 91.4375ZM933.61 88.5781C935.084 88.5781 936.16 88.8672 936.837 89.4453C937.519 90.0182 937.86 90.8411 937.86 91.9141C937.86 92.3984 937.779 92.8594 937.618 93.2969C937.462 93.7292 937.206 94.112 936.852 94.4453C936.498 94.7734 936.032 95.0339 935.454 95.2266C934.881 95.4141 934.178 95.5078 933.344 95.5078H931.954V100H930.626V88.5781H933.61ZM933.485 89.7109H931.954V94.3672H933.196C933.925 94.3672 934.532 94.2891 935.016 94.1328C935.506 93.9766 935.873 93.724 936.118 93.375C936.363 93.0208 936.485 92.5521 936.485 91.9688C936.485 91.2083 936.243 90.6432 935.759 90.2734C935.274 89.8984 934.516 89.7109 933.485 89.7109ZM947.438 95.7031C947.438 96.4062 947.347 97.0339 947.165 97.5859C946.983 98.138 946.719 98.6042 946.376 98.9844C946.032 99.3646 945.615 99.6562 945.126 99.8594C944.641 100.057 944.092 100.156 943.477 100.156C942.904 100.156 942.378 100.057 941.899 99.8594C941.425 99.6562 941.014 99.3646 940.665 98.9844C940.321 98.6042 940.053 98.138 939.86 97.5859C939.673 97.0339 939.579 96.4062 939.579 95.7031C939.579 94.7656 939.738 93.9688 940.055 93.3125C940.373 92.651 940.826 92.1484 941.415 91.8047C942.009 91.4557 942.714 91.2812 943.532 91.2812C944.313 91.2812 944.996 91.4557 945.579 91.8047C946.167 92.1536 946.623 92.6589 946.946 93.3203C947.274 93.9766 947.438 94.7708 947.438 95.7031ZM940.923 95.7031C940.923 96.3906 941.014 96.987 941.196 97.4922C941.378 97.9974 941.66 98.388 942.04 98.6641C942.42 98.9401 942.91 99.0781 943.509 99.0781C944.102 99.0781 944.589 98.9401 944.969 98.6641C945.355 98.388 945.639 97.9974 945.821 97.4922C946.003 96.987 946.094 96.3906 946.094 95.7031C946.094 95.0208 946.003 94.4323 945.821 93.9375C945.639 93.4375 945.358 93.0521 944.977 92.7812C944.597 92.5104 944.105 92.375 943.501 92.375C942.61 92.375 941.956 92.6693 941.54 93.2578C941.128 93.8464 940.923 94.6615 940.923 95.7031ZM950.985 100H949.68V87.8438H950.985V100ZM955.024 91.4375V100H953.727V91.4375H955.024ZM954.391 88.2344C954.605 88.2344 954.787 88.3047 954.938 88.4453C955.094 88.5807 955.173 88.7943 955.173 89.0859C955.173 89.3724 955.094 89.5859 954.938 89.7266C954.787 89.8672 954.605 89.9375 954.391 89.9375C954.167 89.9375 953.98 89.8672 953.829 89.7266C953.683 89.5859 953.61 89.3724 953.61 89.0859C953.61 88.7943 953.683 88.5807 953.829 88.4453C953.98 88.3047 954.167 88.2344 954.391 88.2344ZM961.204 100.156C960.433 100.156 959.753 99.9974 959.165 99.6797C958.576 99.362 958.118 98.8776 957.79 98.2266C957.462 97.5755 957.298 96.7552 957.298 95.7656C957.298 94.7292 957.469 93.8828 957.813 93.2266C958.162 92.5651 958.641 92.0755 959.251 91.7578C959.86 91.4401 960.553 91.2812 961.329 91.2812C961.756 91.2812 962.167 91.3255 962.563 91.4141C962.964 91.4974 963.292 91.6042 963.548 91.7344L963.157 92.8203C962.897 92.7161 962.594 92.6224 962.251 92.5391C961.912 92.4557 961.594 92.4141 961.298 92.4141C960.704 92.4141 960.209 92.5417 959.813 92.7969C959.423 93.0521 959.128 93.4271 958.93 93.9219C958.738 94.4167 958.641 95.026 958.641 95.75C958.641 96.4427 958.735 97.0339 958.923 97.5234C959.115 98.013 959.399 98.388 959.774 98.6484C960.154 98.9036 960.628 99.0312 961.196 99.0312C961.649 99.0312 962.058 98.9844 962.423 98.8906C962.787 98.7917 963.118 98.6771 963.415 98.5469V99.7031C963.128 99.849 962.808 99.9609 962.454 100.039C962.105 100.117 961.688 100.156 961.204 100.156ZM964.094 91.4375H965.485L967.376 96.4062C967.485 96.6979 967.587 96.9792 967.68 97.25C967.774 97.5156 967.858 97.7708 967.93 98.0156C968.003 98.2604 968.061 98.4974 968.102 98.7266H968.157C968.23 98.4661 968.334 98.125 968.469 97.7031C968.605 97.276 968.751 96.8411 968.907 96.3984L970.696 91.4375H972.094L968.368 101.258C968.17 101.784 967.938 102.242 967.673 102.633C967.412 103.023 967.094 103.323 966.719 103.531C966.344 103.745 965.891 103.852 965.36 103.852C965.115 103.852 964.899 103.836 964.712 103.805C964.524 103.779 964.363 103.747 964.227 103.711V102.672C964.342 102.698 964.48 102.721 964.641 102.742C964.808 102.763 964.98 102.773 965.157 102.773C965.48 102.773 965.759 102.711 965.993 102.586C966.233 102.466 966.438 102.289 966.61 102.055C966.782 101.82 966.93 101.542 967.055 101.219L967.524 100.016L964.094 91.4375Z" fill="#0D5794"/>
<path d="M877.18 128H875.844V117.75H872.251V116.578H880.759V117.75H877.18V128ZM885.587 119.281C886.316 119.281 886.941 119.443 887.462 119.766C887.983 120.089 888.381 120.542 888.657 121.125C888.933 121.703 889.071 122.38 889.071 123.156V123.961H883.157C883.173 124.966 883.423 125.732 883.907 126.258C884.391 126.784 885.074 127.047 885.954 127.047C886.496 127.047 886.975 126.997 887.391 126.898C887.808 126.799 888.24 126.654 888.688 126.461V127.602C888.256 127.794 887.826 127.935 887.399 128.023C886.977 128.112 886.477 128.156 885.899 128.156C885.076 128.156 884.358 127.99 883.743 127.656C883.134 127.318 882.66 126.823 882.321 126.172C881.983 125.521 881.813 124.724 881.813 123.781C881.813 122.859 881.967 122.062 882.274 121.391C882.587 120.714 883.024 120.193 883.587 119.828C884.154 119.464 884.821 119.281 885.587 119.281ZM885.571 120.344C884.878 120.344 884.326 120.57 883.915 121.023C883.503 121.477 883.259 122.109 883.18 122.922H887.712C887.706 122.411 887.626 121.964 887.469 121.578C887.318 121.188 887.087 120.885 886.774 120.672C886.462 120.453 886.061 120.344 885.571 120.344ZM895.165 119.281C895.337 119.281 895.516 119.292 895.704 119.312C895.891 119.328 896.058 119.352 896.204 119.383L896.04 120.586C895.899 120.549 895.743 120.521 895.571 120.5C895.399 120.479 895.238 120.469 895.087 120.469C894.743 120.469 894.417 120.539 894.11 120.68C893.808 120.815 893.542 121.013 893.313 121.273C893.084 121.529 892.904 121.839 892.774 122.203C892.644 122.562 892.579 122.964 892.579 123.406V128H891.274V119.438H892.352L892.493 121.016H892.548C892.725 120.698 892.938 120.409 893.188 120.148C893.438 119.883 893.727 119.672 894.055 119.516C894.389 119.359 894.759 119.281 895.165 119.281ZM907.118 119.281C908.061 119.281 908.772 119.529 909.251 120.023C909.73 120.513 909.969 121.302 909.969 122.391V128H908.688V122.453C908.688 121.76 908.537 121.242 908.235 120.898C907.938 120.549 907.496 120.375 906.907 120.375C906.079 120.375 905.477 120.615 905.102 121.094C904.727 121.573 904.54 122.279 904.54 123.211V128H903.251V122.453C903.251 121.99 903.183 121.604 903.048 121.297C902.917 120.99 902.719 120.76 902.454 120.609C902.193 120.453 901.863 120.375 901.462 120.375C900.894 120.375 900.438 120.492 900.094 120.727C899.751 120.961 899.501 121.31 899.344 121.773C899.193 122.232 899.118 122.797 899.118 123.469V128H897.821V119.438H898.868L899.063 120.648H899.134C899.305 120.352 899.522 120.102 899.782 119.898C900.042 119.695 900.334 119.542 900.657 119.438C900.98 119.333 901.324 119.281 901.688 119.281C902.339 119.281 902.884 119.404 903.321 119.648C903.764 119.888 904.084 120.255 904.282 120.75H904.352C904.634 120.255 905.019 119.888 905.509 119.648C905.998 119.404 906.535 119.281 907.118 119.281ZM918.173 125.656C918.173 126.203 918.035 126.664 917.759 127.039C917.488 127.409 917.097 127.688 916.587 127.875C916.081 128.062 915.477 128.156 914.774 128.156C914.175 128.156 913.657 128.109 913.219 128.016C912.782 127.922 912.399 127.789 912.071 127.617V126.422C912.42 126.594 912.837 126.75 913.321 126.891C913.805 127.031 914.3 127.102 914.805 127.102C915.545 127.102 916.081 126.982 916.415 126.742C916.748 126.503 916.915 126.177 916.915 125.766C916.915 125.531 916.847 125.326 916.712 125.148C916.581 124.966 916.36 124.792 916.048 124.625C915.735 124.453 915.303 124.266 914.751 124.062C914.204 123.854 913.73 123.648 913.329 123.445C912.933 123.237 912.626 122.984 912.407 122.688C912.193 122.391 912.087 122.005 912.087 121.531C912.087 120.807 912.378 120.253 912.962 119.867C913.55 119.477 914.321 119.281 915.274 119.281C915.79 119.281 916.272 119.333 916.719 119.438C917.173 119.536 917.594 119.672 917.985 119.844L917.548 120.883C917.193 120.732 916.816 120.604 916.415 120.5C916.014 120.396 915.605 120.344 915.188 120.344C914.589 120.344 914.128 120.443 913.805 120.641C913.488 120.839 913.329 121.109 913.329 121.453C913.329 121.719 913.402 121.938 913.548 122.109C913.699 122.281 913.938 122.443 914.266 122.594C914.594 122.745 915.027 122.922 915.563 123.125C916.1 123.323 916.563 123.529 916.954 123.742C917.344 123.951 917.644 124.206 917.852 124.508C918.066 124.805 918.173 125.188 918.173 125.656ZM931.798 123.703C931.798 124.406 931.706 125.034 931.524 125.586C931.342 126.138 931.079 126.604 930.735 126.984C930.391 127.365 929.975 127.656 929.485 127.859C929.001 128.057 928.451 128.156 927.837 128.156C927.264 128.156 926.738 128.057 926.259 127.859C925.785 127.656 925.373 127.365 925.024 126.984C924.68 126.604 924.412 126.138 924.219 125.586C924.032 125.034 923.938 124.406 923.938 123.703C923.938 122.766 924.097 121.969 924.415 121.312C924.733 120.651 925.186 120.148 925.774 119.805C926.368 119.456 927.074 119.281 927.891 119.281C928.673 119.281 929.355 119.456 929.938 119.805C930.527 120.154 930.983 120.659 931.305 121.32C931.634 121.977 931.798 122.771 931.798 123.703ZM925.282 123.703C925.282 124.391 925.373 124.987 925.555 125.492C925.738 125.997 926.019 126.388 926.399 126.664C926.779 126.94 927.269 127.078 927.868 127.078C928.462 127.078 928.949 126.94 929.329 126.664C929.714 126.388 929.998 125.997 930.18 125.492C930.363 124.987 930.454 124.391 930.454 123.703C930.454 123.021 930.363 122.432 930.18 121.938C929.998 121.438 929.717 121.052 929.337 120.781C928.956 120.51 928.464 120.375 927.86 120.375C926.969 120.375 926.316 120.669 925.899 121.258C925.488 121.846 925.282 122.661 925.282 123.703ZM937.852 120.453H935.719V128H934.423V120.453H932.907V119.828L934.423 119.398V118.828C934.423 118.109 934.529 117.526 934.743 117.078C934.956 116.625 935.266 116.292 935.673 116.078C936.079 115.865 936.574 115.758 937.157 115.758C937.485 115.758 937.785 115.786 938.055 115.844C938.331 115.901 938.574 115.966 938.782 116.039L938.446 117.062C938.269 117.005 938.068 116.953 937.844 116.906C937.626 116.854 937.402 116.828 937.173 116.828C936.678 116.828 936.311 116.99 936.071 117.312C935.837 117.63 935.719 118.13 935.719 118.812V119.438H937.852V120.453ZM952.423 116.578V123.969C952.423 124.776 952.259 125.495 951.93 126.125C951.608 126.755 951.118 127.253 950.462 127.617C949.805 127.977 948.983 128.156 947.993 128.156C946.581 128.156 945.506 127.773 944.766 127.008C944.032 126.242 943.665 125.219 943.665 123.938V116.578H945.001V123.977C945.001 124.945 945.256 125.693 945.766 126.219C946.282 126.745 947.05 127.008 948.071 127.008C948.769 127.008 949.339 126.883 949.782 126.633C950.23 126.378 950.561 126.023 950.774 125.57C950.993 125.112 951.102 124.583 951.102 123.984V116.578H952.423ZM960.798 125.656C960.798 126.203 960.66 126.664 960.384 127.039C960.113 127.409 959.722 127.688 959.212 127.875C958.706 128.062 958.102 128.156 957.399 128.156C956.8 128.156 956.282 128.109 955.844 128.016C955.407 127.922 955.024 127.789 954.696 127.617V126.422C955.045 126.594 955.462 126.75 955.946 126.891C956.43 127.031 956.925 127.102 957.43 127.102C958.17 127.102 958.706 126.982 959.04 126.742C959.373 126.503 959.54 126.177 959.54 125.766C959.54 125.531 959.472 125.326 959.337 125.148C959.206 124.966 958.985 124.792 958.673 124.625C958.36 124.453 957.928 124.266 957.376 124.062C956.829 123.854 956.355 123.648 955.954 123.445C955.558 123.237 955.251 122.984 955.032 122.688C954.818 122.391 954.712 122.005 954.712 121.531C954.712 120.807 955.003 120.253 955.587 119.867C956.175 119.477 956.946 119.281 957.899 119.281C958.415 119.281 958.897 119.333 959.344 119.438C959.798 119.536 960.219 119.672 960.61 119.844L960.173 120.883C959.818 120.732 959.441 120.604 959.04 120.5C958.639 120.396 958.23 120.344 957.813 120.344C957.214 120.344 956.753 120.443 956.43 120.641C956.113 120.839 955.954 121.109 955.954 121.453C955.954 121.719 956.027 121.938 956.173 122.109C956.324 122.281 956.563 122.443 956.891 122.594C957.219 122.745 957.652 122.922 958.188 123.125C958.725 123.323 959.188 123.529 959.579 123.742C959.969 123.951 960.269 124.206 960.477 124.508C960.691 124.805 960.798 125.188 960.798 125.656ZM966.18 119.281C966.91 119.281 967.535 119.443 968.055 119.766C968.576 120.089 968.975 120.542 969.251 121.125C969.527 121.703 969.665 122.38 969.665 123.156V123.961H963.751C963.766 124.966 964.016 125.732 964.501 126.258C964.985 126.784 965.667 127.047 966.548 127.047C967.089 127.047 967.568 126.997 967.985 126.898C968.402 126.799 968.834 126.654 969.282 126.461V127.602C968.85 127.794 968.42 127.935 967.993 128.023C967.571 128.112 967.071 128.156 966.493 128.156C965.67 128.156 964.951 127.99 964.337 127.656C963.727 127.318 963.253 126.823 962.915 126.172C962.576 125.521 962.407 124.724 962.407 123.781C962.407 122.859 962.561 122.062 962.868 121.391C963.18 120.714 963.618 120.193 964.18 119.828C964.748 119.464 965.415 119.281 966.18 119.281ZM966.165 120.344C965.472 120.344 964.92 120.57 964.509 121.023C964.097 121.477 963.852 122.109 963.774 122.922H968.305C968.3 122.411 968.219 121.964 968.063 121.578C967.912 121.188 967.68 120.885 967.368 120.672C967.055 120.453 966.654 120.344 966.165 120.344Z" fill="#0D5794"/>
<path d="M1028.23 64.8281C1028.23 65.5052 1028.07 66.0938 1027.74 66.5938C1027.41 67.0938 1026.93 67.4792 1026.3 67.75C1025.68 68.0208 1024.91 68.1562 1024.02 68.1562C1023.62 68.1562 1023.23 68.1302 1022.85 68.0781C1022.48 68.026 1022.12 67.9505 1021.77 67.8516C1021.43 67.7474 1021.1 67.6198 1020.78 67.4688V65.2188C1021.33 65.4583 1021.89 65.6745 1022.47 65.8672C1023.06 66.0599 1023.63 66.1562 1024.21 66.1562C1024.6 66.1562 1024.92 66.1042 1025.16 66C1025.4 65.8958 1025.58 65.7526 1025.69 65.5703C1025.8 65.388 1025.85 65.1797 1025.85 64.9453C1025.85 64.6589 1025.76 64.4141 1025.57 64.2109C1025.37 64.0078 1025.11 63.8177 1024.77 63.6406C1024.44 63.4635 1024.06 63.2734 1023.64 63.0703C1023.37 62.9453 1023.08 62.7943 1022.77 62.6172C1022.46 62.4349 1022.16 62.2135 1021.88 61.9531C1021.6 61.6927 1021.37 61.3776 1021.18 61.0078C1021.01 60.6328 1020.92 60.1849 1020.92 59.6641C1020.92 58.9818 1021.07 58.3984 1021.39 57.9141C1021.7 57.4297 1022.14 57.0599 1022.72 56.8047C1023.31 56.5443 1023.99 56.4141 1024.78 56.4141C1025.38 56.4141 1025.94 56.4844 1026.48 56.625C1027.02 56.7604 1027.59 56.9583 1028.18 57.2188L1027.39 59.1016C1026.87 58.888 1026.4 58.724 1025.98 58.6094C1025.56 58.4896 1025.14 58.4297 1024.71 58.4297C1024.4 58.4297 1024.15 58.4792 1023.93 58.5781C1023.72 58.6719 1023.56 58.8073 1023.45 58.9844C1023.34 59.1562 1023.28 59.3568 1023.28 59.5859C1023.28 59.8568 1023.36 60.0859 1023.52 60.2734C1023.68 60.4557 1023.92 60.6328 1024.24 60.8047C1024.56 60.9766 1024.96 61.1771 1025.44 61.4062C1026.02 61.6823 1026.52 61.9714 1026.93 62.2734C1027.35 62.5703 1027.67 62.9219 1027.89 63.3281C1028.12 63.7292 1028.23 64.2292 1028.23 64.8281ZM1032.5 59.2656V68H1030.11V59.2656H1032.5ZM1031.31 55.8438C1031.66 55.8438 1031.97 55.9271 1032.22 56.0938C1032.48 56.2552 1032.6 56.5599 1032.6 57.0078C1032.6 57.4505 1032.48 57.7578 1032.22 57.9297C1031.97 58.0964 1031.66 58.1797 1031.31 58.1797C1030.95 58.1797 1030.64 58.0964 1030.39 57.9297C1030.14 57.7578 1030.01 57.4505 1030.01 57.0078C1030.01 56.5599 1030.14 56.2552 1030.39 56.0938C1030.64 55.9271 1030.95 55.8438 1031.31 55.8438ZM1038.68 66.2578C1038.94 66.2578 1039.2 66.2318 1039.44 66.1797C1039.69 66.1276 1039.94 66.0625 1040.18 65.9844V67.7578C1039.93 67.8724 1039.61 67.9661 1039.23 68.0391C1038.85 68.1172 1038.44 68.1562 1038 68.1562C1037.47 68.1562 1037.01 68.0729 1036.59 67.9062C1036.18 67.7344 1035.85 67.4401 1035.61 67.0234C1035.38 66.6016 1035.26 66.0156 1035.26 65.2656V61.0547H1034.12V60.0469L1035.43 59.25L1036.12 57.4062H1037.64V59.2656H1040.09V61.0547H1037.64V65.2656C1037.64 65.599 1037.74 65.849 1037.93 66.0156C1038.12 66.1771 1038.37 66.2578 1038.68 66.2578ZM1045.56 59.1016C1046.37 59.1016 1047.06 59.2578 1047.64 59.5703C1048.23 59.8776 1048.68 60.3255 1049 60.9141C1049.31 61.5026 1049.47 62.2214 1049.47 63.0703V64.2266H1043.84C1043.87 64.8984 1044.07 65.4271 1044.44 65.8125C1044.82 66.1927 1045.35 66.3828 1046.02 66.3828C1046.58 66.3828 1047.09 66.3255 1047.55 66.2109C1048.01 66.0964 1048.49 65.9245 1048.98 65.6953V67.5391C1048.55 67.7526 1048.09 67.9089 1047.62 68.0078C1047.15 68.1068 1046.58 68.1562 1045.91 68.1562C1045.03 68.1562 1044.26 67.9948 1043.58 67.6719C1042.91 67.349 1042.38 66.8568 1042 66.1953C1041.62 65.5339 1041.43 64.7005 1041.43 63.6953C1041.43 62.6745 1041.6 61.8255 1041.94 61.1484C1042.29 60.4661 1042.77 59.9557 1043.39 59.6172C1044.01 59.2734 1044.73 59.1016 1045.56 59.1016ZM1045.57 60.7969C1045.11 60.7969 1044.72 60.9453 1044.42 61.2422C1044.12 61.5391 1043.94 62.0052 1043.89 62.6406H1047.24C1047.23 62.2865 1047.17 61.9714 1047.04 61.6953C1046.92 61.4193 1046.74 61.2005 1046.5 61.0391C1046.26 60.8776 1045.95 60.7969 1045.57 60.7969Z" fill="#0D5794"/>
<path d="M1028.78 100L1027.37 96.375H1022.79L1021.39 100H1020.05L1024.52 88.5312H1025.71L1030.15 100H1028.78ZM1026.97 95.1953L1025.64 91.5938C1025.6 91.5 1025.55 91.3464 1025.48 91.1328C1025.41 90.9193 1025.34 90.6979 1025.27 90.4688C1025.2 90.2396 1025.14 90.0547 1025.09 89.9141C1025.04 90.1276 1024.98 90.3411 1024.92 90.5547C1024.86 90.763 1024.8 90.9583 1024.75 91.1406C1024.69 91.3177 1024.64 91.4688 1024.6 91.5938L1023.24 95.1953H1026.97ZM1032.84 87.8438V90.8828C1032.84 91.2318 1032.83 91.5703 1032.81 91.8984C1032.79 92.2266 1032.78 92.4818 1032.77 92.6641H1032.84C1033.07 92.2786 1033.41 91.9531 1033.85 91.6875C1034.3 91.4219 1034.86 91.2891 1035.55 91.2891C1036.62 91.2891 1037.48 91.6615 1038.11 92.4062C1038.75 93.1458 1039.07 94.2474 1039.07 95.7109C1039.07 96.6745 1038.93 97.487 1038.64 98.1484C1038.34 98.8099 1037.93 99.3099 1037.4 99.6484C1036.87 99.987 1036.24 100.156 1035.52 100.156C1034.84 100.156 1034.28 100.031 1033.85 99.7812C1033.41 99.526 1033.08 99.2161 1032.85 98.8516H1032.75L1032.48 100H1031.54V87.8438H1032.84ZM1035.34 92.375C1034.72 92.375 1034.23 92.4974 1033.86 92.7422C1033.5 92.9818 1033.23 93.3464 1033.07 93.8359C1032.92 94.3203 1032.84 94.9349 1032.84 95.6797V95.75C1032.84 96.8281 1033.02 97.6536 1033.38 98.2266C1033.74 98.7943 1034.39 99.0781 1035.34 99.0781C1036.14 99.0781 1036.73 98.7865 1037.13 98.2031C1037.53 97.6198 1037.73 96.7865 1037.73 95.7031C1037.73 94.599 1037.53 93.7682 1037.14 93.2109C1036.75 92.6536 1036.15 92.375 1035.34 92.375ZM1048.72 95.7031C1048.72 96.4062 1048.63 97.0339 1048.45 97.5859C1048.27 98.138 1048 98.6042 1047.66 98.9844C1047.32 99.3646 1046.9 99.6562 1046.41 99.8594C1045.93 100.057 1045.38 100.156 1044.76 100.156C1044.19 100.156 1043.66 100.057 1043.18 99.8594C1042.71 99.6562 1042.3 99.3646 1041.95 98.9844C1041.6 98.6042 1041.34 98.138 1041.14 97.5859C1040.96 97.0339 1040.86 96.4062 1040.86 95.7031C1040.86 94.7656 1041.02 93.9688 1041.34 93.3125C1041.66 92.651 1042.11 92.1484 1042.7 91.8047C1043.29 91.4557 1044 91.2812 1044.82 91.2812C1045.6 91.2812 1046.28 91.4557 1046.86 91.8047C1047.45 92.1536 1047.91 92.6589 1048.23 93.3203C1048.56 93.9766 1048.72 94.7708 1048.72 95.7031ZM1042.21 95.7031C1042.21 96.3906 1042.3 96.987 1042.48 97.4922C1042.66 97.9974 1042.94 98.388 1043.32 98.6641C1043.7 98.9401 1044.19 99.0781 1044.79 99.0781C1045.39 99.0781 1045.87 98.9401 1046.25 98.6641C1046.64 98.388 1046.92 97.9974 1047.1 97.4922C1047.29 96.987 1047.38 96.3906 1047.38 95.7031C1047.38 95.0208 1047.29 94.4323 1047.1 93.9375C1046.92 93.4375 1046.64 93.0521 1046.26 92.7812C1045.88 92.5104 1045.39 92.375 1044.78 92.375C1043.89 92.375 1043.24 92.6693 1042.82 93.2578C1042.41 93.8464 1042.21 94.6615 1042.21 95.7031ZM1058.03 91.4375V100H1056.97L1056.78 98.7969H1056.71C1056.54 99.0938 1056.31 99.3438 1056.03 99.5469C1055.75 99.75 1055.43 99.901 1055.07 100C1054.72 100.104 1054.35 100.156 1053.96 100.156C1053.28 100.156 1052.71 100.047 1052.25 99.8281C1051.79 99.6094 1051.45 99.2708 1051.21 98.8125C1050.98 98.3542 1050.87 97.7656 1050.87 97.0469V91.4375H1052.18V96.9531C1052.18 97.6667 1052.34 98.2005 1052.67 98.5547C1052.99 98.9036 1053.48 99.0781 1054.14 99.0781C1054.78 99.0781 1055.28 98.9583 1055.66 98.7188C1056.04 98.4792 1056.31 98.1276 1056.48 97.6641C1056.65 97.1953 1056.73 96.6224 1056.73 95.9453V91.4375H1058.03ZM1063.54 99.0938C1063.76 99.0938 1063.97 99.0755 1064.2 99.0391C1064.42 99.0026 1064.6 98.9583 1064.75 98.9062V99.9141C1064.59 99.9818 1064.38 100.039 1064.11 100.086C1063.85 100.133 1063.59 100.156 1063.33 100.156C1062.88 100.156 1062.47 100.078 1062.1 99.9219C1061.73 99.7604 1061.43 99.4896 1061.21 99.1094C1060.99 98.7292 1060.88 98.2031 1060.88 97.5312V92.4531H1059.66V91.8203L1060.89 91.3125L1061.4 89.4531H1062.18V91.4375H1064.69V92.4531H1062.18V97.4922C1062.18 98.0286 1062.31 98.4297 1062.55 98.6953C1062.8 98.9609 1063.13 99.0938 1063.54 99.0938Z" fill="#0D5794"/>
<path d="M1026.5 117.586C1025.87 117.586 1025.3 117.695 1024.79 117.914C1024.29 118.128 1023.87 118.44 1023.51 118.852C1023.16 119.258 1022.89 119.75 1022.71 120.328C1022.52 120.906 1022.43 121.557 1022.43 122.281C1022.43 123.24 1022.57 124.073 1022.87 124.781C1023.17 125.484 1023.62 126.029 1024.21 126.414C1024.81 126.799 1025.56 126.992 1026.46 126.992C1026.97 126.992 1027.45 126.951 1027.89 126.867C1028.35 126.779 1028.79 126.669 1029.21 126.539V127.695C1028.8 127.852 1028.36 127.966 1027.9 128.039C1027.44 128.117 1026.9 128.156 1026.27 128.156C1025.11 128.156 1024.14 127.917 1023.35 127.438C1022.58 126.953 1022 126.271 1021.6 125.391C1021.22 124.51 1021.03 123.471 1021.03 122.273C1021.03 121.409 1021.15 120.62 1021.39 119.906C1021.63 119.188 1021.98 118.568 1022.45 118.047C1022.92 117.526 1023.49 117.125 1024.17 116.844C1024.85 116.557 1025.63 116.414 1026.51 116.414C1027.09 116.414 1027.65 116.471 1028.18 116.586C1028.72 116.701 1029.2 116.865 1029.64 117.078L1029.1 118.203C1028.74 118.036 1028.34 117.893 1027.9 117.773C1027.47 117.648 1027 117.586 1026.5 117.586ZM1038.88 123.703C1038.88 124.406 1038.79 125.034 1038.6 125.586C1038.42 126.138 1038.16 126.604 1037.82 126.984C1037.47 127.365 1037.06 127.656 1036.57 127.859C1036.08 128.057 1035.53 128.156 1034.92 128.156C1034.34 128.156 1033.82 128.057 1033.34 127.859C1032.87 127.656 1032.45 127.365 1032.1 126.984C1031.76 126.604 1031.49 126.138 1031.3 125.586C1031.11 125.034 1031.02 124.406 1031.02 123.703C1031.02 122.766 1031.18 121.969 1031.5 121.312C1031.81 120.651 1032.27 120.148 1032.85 119.805C1033.45 119.456 1034.15 119.281 1034.97 119.281C1035.75 119.281 1036.44 119.456 1037.02 119.805C1037.61 120.154 1038.06 120.659 1038.39 121.32C1038.71 121.977 1038.88 122.771 1038.88 123.703ZM1032.36 123.703C1032.36 124.391 1032.45 124.987 1032.64 125.492C1032.82 125.997 1033.1 126.388 1033.48 126.664C1033.86 126.94 1034.35 127.078 1034.95 127.078C1035.54 127.078 1036.03 126.94 1036.41 126.664C1036.79 126.388 1037.08 125.997 1037.26 125.492C1037.44 124.987 1037.53 124.391 1037.53 123.703C1037.53 123.021 1037.44 122.432 1037.26 121.938C1037.08 121.438 1036.8 121.052 1036.42 120.781C1036.04 120.51 1035.54 120.375 1034.94 120.375C1034.05 120.375 1033.4 120.669 1032.98 121.258C1032.57 121.846 1032.36 122.661 1032.36 123.703ZM1045.18 119.281C1046.19 119.281 1046.96 119.531 1047.48 120.031C1048 120.526 1048.26 121.323 1048.26 122.422V128H1046.98V122.508C1046.98 121.794 1046.82 121.26 1046.49 120.906C1046.16 120.552 1045.67 120.375 1045 120.375C1044.05 120.375 1043.38 120.643 1043 121.18C1042.61 121.716 1042.42 122.495 1042.42 123.516V128H1041.12V119.438H1042.17L1042.36 120.672H1042.43C1042.62 120.37 1042.85 120.117 1043.13 119.914C1043.41 119.706 1043.72 119.549 1044.07 119.445C1044.42 119.336 1044.79 119.281 1045.18 119.281ZM1053.7 127.094C1053.91 127.094 1054.13 127.076 1054.35 127.039C1054.58 127.003 1054.76 126.958 1054.9 126.906V127.914C1054.75 127.982 1054.54 128.039 1054.27 128.086C1054 128.133 1053.74 128.156 1053.49 128.156C1053.03 128.156 1052.62 128.078 1052.25 127.922C1051.88 127.76 1051.59 127.49 1051.36 127.109C1051.14 126.729 1051.03 126.203 1051.03 125.531V120.453H1049.82V119.82L1051.04 119.312L1051.56 117.453H1052.34V119.438H1054.85V120.453H1052.34V125.492C1052.34 126.029 1052.46 126.43 1052.71 126.695C1052.96 126.961 1053.29 127.094 1053.7 127.094ZM1059.84 119.297C1060.86 119.297 1061.62 119.526 1062.11 119.984C1062.61 120.443 1062.85 121.174 1062.85 122.18V128H1061.91L1061.66 126.734H1061.6C1061.36 127.047 1061.11 127.31 1060.85 127.523C1060.59 127.732 1060.28 127.891 1059.94 128C1059.6 128.104 1059.19 128.156 1058.69 128.156C1058.17 128.156 1057.71 128.065 1057.3 127.883C1056.9 127.701 1056.58 127.424 1056.35 127.055C1056.12 126.685 1056 126.216 1056 125.648C1056 124.794 1056.34 124.138 1057.02 123.68C1057.7 123.221 1058.73 122.971 1060.11 122.93L1061.59 122.867V122.344C1061.59 121.604 1061.43 121.086 1061.11 120.789C1060.79 120.492 1060.35 120.344 1059.77 120.344C1059.32 120.344 1058.89 120.409 1058.49 120.539C1058.08 120.669 1057.7 120.823 1057.33 121L1056.93 120.016C1057.32 119.818 1057.76 119.648 1058.26 119.508C1058.76 119.367 1059.29 119.297 1059.84 119.297ZM1061.57 123.781L1060.27 123.836C1059.2 123.878 1058.45 124.052 1058.01 124.359C1057.57 124.667 1057.35 125.102 1057.35 125.664C1057.35 126.154 1057.5 126.516 1057.8 126.75C1058.1 126.984 1058.49 127.102 1058.98 127.102C1059.74 127.102 1060.36 126.891 1060.85 126.469C1061.33 126.047 1061.57 125.414 1061.57 124.57V123.781ZM1068.96 128.156C1068.19 128.156 1067.51 127.997 1066.92 127.68C1066.33 127.362 1065.87 126.878 1065.54 126.227C1065.21 125.576 1065.05 124.755 1065.05 123.766C1065.05 122.729 1065.22 121.883 1065.57 121.227C1065.91 120.565 1066.39 120.076 1067 119.758C1067.61 119.44 1068.31 119.281 1069.08 119.281C1069.51 119.281 1069.92 119.326 1070.32 119.414C1070.72 119.497 1071.04 119.604 1071.3 119.734L1070.91 120.82C1070.65 120.716 1070.35 120.622 1070 120.539C1069.66 120.456 1069.35 120.414 1069.05 120.414C1068.46 120.414 1067.96 120.542 1067.57 120.797C1067.18 121.052 1066.88 121.427 1066.68 121.922C1066.49 122.417 1066.39 123.026 1066.39 123.75C1066.39 124.443 1066.49 125.034 1066.68 125.523C1066.87 126.013 1067.15 126.388 1067.53 126.648C1067.91 126.904 1068.38 127.031 1068.95 127.031C1069.4 127.031 1069.81 126.984 1070.18 126.891C1070.54 126.792 1070.87 126.677 1071.17 126.547V127.703C1070.88 127.849 1070.56 127.961 1070.21 128.039C1069.86 128.117 1069.44 128.156 1068.96 128.156ZM1075.96 127.094C1076.18 127.094 1076.4 127.076 1076.62 127.039C1076.84 127.003 1077.03 126.958 1077.17 126.906V127.914C1077.02 127.982 1076.81 128.039 1076.53 128.086C1076.27 128.133 1076.01 128.156 1075.75 128.156C1075.3 128.156 1074.89 128.078 1074.52 127.922C1074.15 127.76 1073.85 127.49 1073.63 127.109C1073.41 126.729 1073.3 126.203 1073.3 125.531V120.453H1072.08V119.82L1073.31 119.312L1073.82 117.453H1074.6V119.438H1077.11V120.453H1074.6V125.492C1074.6 126.029 1074.73 126.43 1074.97 126.695C1075.22 126.961 1075.55 127.094 1075.96 127.094Z" fill="#0D5794"/>
<path d="M1024.6 144.578C1026.07 144.578 1027.15 144.867 1027.82 145.445C1028.51 146.018 1028.85 146.841 1028.85 147.914C1028.85 148.398 1028.77 148.859 1028.6 149.297C1028.45 149.729 1028.19 150.112 1027.84 150.445C1027.48 150.773 1027.02 151.034 1026.44 151.227C1025.87 151.414 1025.16 151.508 1024.33 151.508H1022.94V156H1021.61V144.578H1024.6ZM1024.47 145.711H1022.94V150.367H1024.18C1024.91 150.367 1025.52 150.289 1026 150.133C1026.49 149.977 1026.86 149.724 1027.1 149.375C1027.35 149.021 1027.47 148.552 1027.47 147.969C1027.47 147.208 1027.23 146.643 1026.75 146.273C1026.26 145.898 1025.5 145.711 1024.47 145.711ZM1034.93 147.281C1035.1 147.281 1035.28 147.292 1035.47 147.312C1035.66 147.328 1035.83 147.352 1035.97 147.383L1035.81 148.586C1035.67 148.549 1035.51 148.521 1035.34 148.5C1035.17 148.479 1035.01 148.469 1034.85 148.469C1034.51 148.469 1034.19 148.539 1033.88 148.68C1033.58 148.815 1033.31 149.013 1033.08 149.273C1032.85 149.529 1032.67 149.839 1032.54 150.203C1032.41 150.562 1032.35 150.964 1032.35 151.406V156H1031.04V147.438H1032.12L1032.26 149.016H1032.32C1032.49 148.698 1032.71 148.409 1032.96 148.148C1033.21 147.883 1033.5 147.672 1033.82 147.516C1034.16 147.359 1034.53 147.281 1034.93 147.281ZM1038.89 147.438V156H1037.59V147.438H1038.89ZM1038.25 144.234C1038.47 144.234 1038.65 144.305 1038.8 144.445C1038.96 144.581 1039.03 144.794 1039.03 145.086C1039.03 145.372 1038.96 145.586 1038.8 145.727C1038.65 145.867 1038.47 145.938 1038.25 145.938C1038.03 145.938 1037.84 145.867 1037.69 145.727C1037.54 145.586 1037.47 145.372 1037.47 145.086C1037.47 144.794 1037.54 144.581 1037.69 144.445C1037.84 144.305 1038.03 144.234 1038.25 144.234ZM1045.07 156.156C1044.29 156.156 1043.62 155.997 1043.03 155.68C1042.44 155.362 1041.98 154.878 1041.65 154.227C1041.32 153.576 1041.16 152.755 1041.16 151.766C1041.16 150.729 1041.33 149.883 1041.68 149.227C1042.02 148.565 1042.5 148.076 1043.11 147.758C1043.72 147.44 1044.41 147.281 1045.19 147.281C1045.62 147.281 1046.03 147.326 1046.43 147.414C1046.83 147.497 1047.15 147.604 1047.41 147.734L1047.02 148.82C1046.76 148.716 1046.46 148.622 1046.11 148.539C1045.77 148.456 1045.46 148.414 1045.16 148.414C1044.57 148.414 1044.07 148.542 1043.68 148.797C1043.28 149.052 1042.99 149.427 1042.79 149.922C1042.6 150.417 1042.5 151.026 1042.5 151.75C1042.5 152.443 1042.6 153.034 1042.78 153.523C1042.98 154.013 1043.26 154.388 1043.64 154.648C1044.02 154.904 1044.49 155.031 1045.06 155.031C1045.51 155.031 1045.92 154.984 1046.28 154.891C1046.65 154.792 1046.98 154.677 1047.28 154.547V155.703C1046.99 155.849 1046.67 155.961 1046.32 156.039C1045.97 156.117 1045.55 156.156 1045.07 156.156ZM1050.6 147.438V156H1049.31V147.438H1050.6ZM1049.97 144.234C1050.19 144.234 1050.37 144.305 1050.52 144.445C1050.68 144.581 1050.75 144.794 1050.75 145.086C1050.75 145.372 1050.68 145.586 1050.52 145.727C1050.37 145.867 1050.19 145.938 1049.97 145.938C1049.75 145.938 1049.56 145.867 1049.41 145.727C1049.26 145.586 1049.19 145.372 1049.19 145.086C1049.19 144.794 1049.26 144.581 1049.41 144.445C1049.56 144.305 1049.75 144.234 1049.97 144.234ZM1057.41 147.281C1058.43 147.281 1059.19 147.531 1059.71 148.031C1060.23 148.526 1060.5 149.323 1060.5 150.422V156H1059.21V150.508C1059.21 149.794 1059.05 149.26 1058.72 148.906C1058.4 148.552 1057.9 148.375 1057.23 148.375C1056.28 148.375 1055.62 148.643 1055.23 149.18C1054.84 149.716 1054.65 150.495 1054.65 151.516V156H1053.35V147.438H1054.4L1054.6 148.672H1054.67C1054.85 148.37 1055.08 148.117 1055.36 147.914C1055.64 147.706 1055.96 147.549 1056.31 147.445C1056.66 147.336 1057.02 147.281 1057.41 147.281ZM1065.56 159.844C1064.43 159.844 1063.57 159.633 1062.96 159.211C1062.35 158.794 1062.04 158.208 1062.04 157.453C1062.04 156.917 1062.21 156.458 1062.55 156.078C1062.89 155.698 1063.37 155.445 1063.97 155.32C1063.75 155.216 1063.56 155.06 1063.39 154.852C1063.24 154.643 1063.16 154.404 1063.16 154.133C1063.16 153.82 1063.25 153.547 1063.42 153.312C1063.59 153.073 1063.86 152.844 1064.22 152.625C1063.77 152.443 1063.41 152.135 1063.13 151.703C1062.85 151.266 1062.71 150.758 1062.71 150.18C1062.71 149.565 1062.84 149.042 1063.1 148.609C1063.35 148.172 1063.72 147.839 1064.21 147.609C1064.69 147.38 1065.28 147.266 1065.96 147.266C1066.12 147.266 1066.27 147.273 1066.42 147.289C1066.57 147.299 1066.72 147.318 1066.86 147.344C1067 147.365 1067.13 147.391 1067.23 147.422H1070.17V148.258L1068.59 148.453C1068.75 148.656 1068.88 148.901 1068.98 149.188C1069.08 149.474 1069.14 149.792 1069.14 150.141C1069.14 150.995 1068.85 151.674 1068.27 152.18C1067.69 152.68 1066.9 152.93 1065.89 152.93C1065.65 152.93 1065.4 152.909 1065.15 152.867C1064.9 153.008 1064.7 153.164 1064.57 153.336C1064.44 153.508 1064.37 153.706 1064.37 153.93C1064.37 154.096 1064.42 154.229 1064.52 154.328C1064.62 154.427 1064.77 154.5 1064.96 154.547C1065.16 154.589 1065.39 154.609 1065.66 154.609H1067.17C1068.1 154.609 1068.81 154.805 1069.31 155.195C1069.81 155.586 1070.06 156.156 1070.06 156.906C1070.06 157.854 1069.67 158.581 1068.9 159.086C1068.13 159.591 1067.02 159.844 1065.56 159.844ZM1065.6 158.828C1066.31 158.828 1066.89 158.755 1067.35 158.609C1067.82 158.469 1068.17 158.263 1068.4 157.992C1068.64 157.727 1068.75 157.409 1068.75 157.039C1068.75 156.695 1068.68 156.435 1068.52 156.258C1068.36 156.086 1068.13 155.971 1067.83 155.914C1067.53 155.852 1067.16 155.82 1066.72 155.82H1065.24C1064.85 155.82 1064.52 155.88 1064.23 156C1063.94 156.12 1063.72 156.297 1063.57 156.531C1063.41 156.766 1063.34 157.057 1063.34 157.406C1063.34 157.87 1063.53 158.221 1063.93 158.461C1064.32 158.706 1064.87 158.828 1065.6 158.828ZM1065.93 151.984C1066.55 151.984 1067.02 151.828 1067.33 151.516C1067.64 151.203 1067.8 150.747 1067.8 150.148C1067.8 149.508 1067.64 149.029 1067.32 148.711C1067.01 148.388 1066.54 148.227 1065.92 148.227C1065.32 148.227 1064.87 148.393 1064.54 148.727C1064.22 149.055 1064.07 149.536 1064.07 150.172C1064.07 150.755 1064.23 151.203 1064.55 151.516C1064.87 151.828 1065.33 151.984 1065.93 151.984Z" fill="#0D5794"/>
<path d="M1030.68 178.18C1030.68 179.466 1030.45 180.542 1029.98 181.406C1029.51 182.266 1028.83 182.914 1027.94 183.352C1027.06 183.784 1025.98 184 1024.71 184H1021.61V172.578H1025.06C1026.22 172.578 1027.22 172.792 1028.06 173.219C1028.9 173.641 1029.54 174.268 1030 175.102C1030.45 175.93 1030.68 176.956 1030.68 178.18ZM1029.28 178.227C1029.28 177.201 1029.11 176.354 1028.77 175.688C1028.43 175.021 1027.93 174.526 1027.27 174.203C1026.61 173.875 1025.81 173.711 1024.85 173.711H1022.94V182.859H1024.56C1026.13 182.859 1027.31 182.471 1028.1 181.695C1028.89 180.919 1029.28 179.763 1029.28 178.227ZM1036.32 175.281C1037.05 175.281 1037.68 175.443 1038.2 175.766C1038.72 176.089 1039.12 176.542 1039.39 177.125C1039.67 177.703 1039.81 178.38 1039.81 179.156V179.961H1033.89C1033.91 180.966 1034.16 181.732 1034.64 182.258C1035.13 182.784 1035.81 183.047 1036.69 183.047C1037.23 183.047 1037.71 182.997 1038.13 182.898C1038.54 182.799 1038.98 182.654 1039.43 182.461V183.602C1038.99 183.794 1038.56 183.935 1038.14 184.023C1037.71 184.112 1037.21 184.156 1036.64 184.156C1035.81 184.156 1035.09 183.99 1034.48 183.656C1033.87 183.318 1033.4 182.823 1033.06 182.172C1032.72 181.521 1032.55 180.724 1032.55 179.781C1032.55 178.859 1032.7 178.062 1033.01 177.391C1033.32 176.714 1033.76 176.193 1034.32 175.828C1034.89 175.464 1035.56 175.281 1036.32 175.281ZM1036.31 176.344C1035.62 176.344 1035.06 176.57 1034.65 177.023C1034.24 177.477 1034 178.109 1033.92 178.922H1038.45C1038.44 178.411 1038.36 177.964 1038.21 177.578C1038.06 177.188 1037.82 176.885 1037.51 176.672C1037.2 176.453 1036.8 176.344 1036.31 176.344ZM1051.31 175.281C1052.25 175.281 1052.96 175.529 1053.44 176.023C1053.92 176.513 1054.16 177.302 1054.16 178.391V184H1052.88V178.453C1052.88 177.76 1052.73 177.242 1052.43 176.898C1052.13 176.549 1051.69 176.375 1051.1 176.375C1050.27 176.375 1049.67 176.615 1049.29 177.094C1048.92 177.573 1048.73 178.279 1048.73 179.211V184H1047.44V178.453C1047.44 177.99 1047.37 177.604 1047.24 177.297C1047.11 176.99 1046.91 176.76 1046.64 176.609C1046.38 176.453 1046.05 176.375 1045.65 176.375C1045.08 176.375 1044.63 176.492 1044.28 176.727C1043.94 176.961 1043.69 177.31 1043.53 177.773C1043.38 178.232 1043.31 178.797 1043.31 179.469V184H1042.01V175.438H1043.06L1043.25 176.648H1043.32C1043.5 176.352 1043.71 176.102 1043.97 175.898C1044.23 175.695 1044.52 175.542 1044.85 175.438C1045.17 175.333 1045.51 175.281 1045.88 175.281C1046.53 175.281 1047.07 175.404 1047.51 175.648C1047.95 175.888 1048.27 176.255 1048.47 176.75H1048.54C1048.82 176.255 1049.21 175.888 1049.7 175.648C1050.19 175.404 1050.72 175.281 1051.31 175.281ZM1064.21 179.703C1064.21 180.406 1064.12 181.034 1063.93 181.586C1063.75 182.138 1063.49 182.604 1063.14 182.984C1062.8 183.365 1062.38 183.656 1061.89 183.859C1061.41 184.057 1060.86 184.156 1060.25 184.156C1059.67 184.156 1059.15 184.057 1058.67 183.859C1058.19 183.656 1057.78 183.365 1057.43 182.984C1057.09 182.604 1056.82 182.138 1056.63 181.586C1056.44 181.034 1056.35 180.406 1056.35 179.703C1056.35 178.766 1056.51 177.969 1056.82 177.312C1057.14 176.651 1057.59 176.148 1058.18 175.805C1058.78 175.456 1059.48 175.281 1060.3 175.281C1061.08 175.281 1061.76 175.456 1062.35 175.805C1062.94 176.154 1063.39 176.659 1063.71 177.32C1064.04 177.977 1064.21 178.771 1064.21 179.703ZM1057.69 179.703C1057.69 180.391 1057.78 180.987 1057.96 181.492C1058.15 181.997 1058.43 182.388 1058.81 182.664C1059.19 182.94 1059.68 183.078 1060.28 183.078C1060.87 183.078 1061.36 182.94 1061.74 182.664C1062.12 182.388 1062.41 181.997 1062.59 181.492C1062.77 180.987 1062.86 180.391 1062.86 179.703C1062.86 179.021 1062.77 178.432 1062.59 177.938C1062.41 177.438 1062.13 177.052 1061.75 176.781C1061.37 176.51 1060.87 176.375 1060.27 176.375C1059.38 176.375 1058.72 176.669 1058.31 177.258C1057.9 177.846 1057.69 178.661 1057.69 179.703Z" fill="#0D5794"/>
<path d="M1131.82 58.4297C1131.36 58.4297 1130.94 58.5208 1130.58 58.7031C1130.23 58.8802 1129.93 59.138 1129.69 59.4766C1129.45 59.8151 1129.26 60.224 1129.14 60.7031C1129.01 61.1823 1128.95 61.7214 1128.95 62.3203C1128.95 63.1276 1129.05 63.8177 1129.25 64.3906C1129.45 64.9583 1129.76 65.3932 1130.19 65.6953C1130.61 65.9922 1131.15 66.1406 1131.82 66.1406C1132.28 66.1406 1132.75 66.0885 1133.21 65.9844C1133.68 65.8802 1134.19 65.7318 1134.73 65.5391V67.5703C1134.23 67.7786 1133.73 67.9271 1133.24 68.0156C1132.75 68.1094 1132.2 68.1562 1131.59 68.1562C1130.42 68.1562 1129.45 67.9141 1128.69 67.4297C1127.93 66.9401 1127.37 66.2578 1127.01 65.3828C1126.64 64.5026 1126.46 63.4766 1126.46 62.3047C1126.46 61.4401 1126.58 60.6484 1126.81 59.9297C1127.05 59.2109 1127.39 58.5885 1127.84 58.0625C1128.3 57.5365 1128.86 57.1302 1129.52 56.8438C1130.19 56.5573 1130.95 56.4141 1131.82 56.4141C1132.39 56.4141 1132.95 56.487 1133.52 56.6328C1134.1 56.7734 1134.64 56.9688 1135.16 57.2188L1134.38 59.1875C1133.95 58.9844 1133.52 58.8073 1133.09 58.6562C1132.66 58.5052 1132.24 58.4297 1131.82 58.4297ZM1144.92 63.6172C1144.92 64.3464 1144.82 64.9922 1144.62 65.5547C1144.43 66.1172 1144.15 66.5938 1143.77 66.9844C1143.4 67.3698 1142.95 67.6615 1142.43 67.8594C1141.91 68.0573 1141.32 68.1562 1140.66 68.1562C1140.05 68.1562 1139.48 68.0573 1138.97 67.8594C1138.46 67.6615 1138.01 67.3698 1137.63 66.9844C1137.26 66.5938 1136.96 66.1172 1136.76 65.5547C1136.55 64.9922 1136.45 64.3464 1136.45 63.6172C1136.45 62.6484 1136.62 61.8281 1136.97 61.1562C1137.31 60.4844 1137.8 59.974 1138.44 59.625C1139.07 59.276 1139.83 59.1016 1140.71 59.1016C1141.53 59.1016 1142.25 59.276 1142.88 59.625C1143.52 59.974 1144.01 60.4844 1144.37 61.1562C1144.74 61.8281 1144.92 62.6484 1144.92 63.6172ZM1138.88 63.6172C1138.88 64.1901 1138.94 64.6719 1139.07 65.0625C1139.19 65.4531 1139.39 65.7474 1139.66 65.9453C1139.92 66.1432 1140.27 66.2422 1140.69 66.2422C1141.12 66.2422 1141.46 66.1432 1141.72 65.9453C1141.98 65.7474 1142.18 65.4531 1142.3 65.0625C1142.42 64.6719 1142.48 64.1901 1142.48 63.6172C1142.48 63.0391 1142.42 62.5599 1142.3 62.1797C1142.18 61.7943 1141.98 61.5052 1141.72 61.3125C1141.45 61.1198 1141.11 61.0234 1140.68 61.0234C1140.05 61.0234 1139.59 61.2396 1139.3 61.6719C1139.02 62.1042 1138.88 62.7526 1138.88 63.6172ZM1151.85 59.1016C1152.78 59.1016 1153.53 59.3568 1154.1 59.8672C1154.67 60.3724 1154.95 61.1849 1154.95 62.3047V68H1152.57V62.8984C1152.57 62.2734 1152.45 61.8021 1152.23 61.4844C1152 61.1667 1151.65 61.0078 1151.16 61.0078C1150.43 61.0078 1149.94 61.2552 1149.67 61.75C1149.41 62.2448 1149.27 62.9583 1149.27 63.8906V68H1146.89V59.2656H1148.71L1149.03 60.3828H1149.16C1149.35 60.0807 1149.58 59.8359 1149.86 59.6484C1150.14 59.4609 1150.45 59.3229 1150.79 59.2344C1151.13 59.1458 1151.49 59.1016 1151.85 59.1016ZM1161.08 66.2578C1161.35 66.2578 1161.6 66.2318 1161.84 66.1797C1162.09 66.1276 1162.34 66.0625 1162.58 65.9844V67.7578C1162.33 67.8724 1162.01 67.9661 1161.63 68.0391C1161.26 68.1172 1160.85 68.1562 1160.4 68.1562C1159.88 68.1562 1159.41 68.0729 1158.99 67.9062C1158.58 67.7344 1158.25 67.4401 1158.01 67.0234C1157.78 66.6016 1157.66 66.0156 1157.66 65.2656V61.0547H1156.52V60.0469L1157.83 59.25L1158.52 57.4062H1160.05V59.2656H1162.49V61.0547H1160.05V65.2656C1160.05 65.599 1160.14 65.849 1160.33 66.0156C1160.52 66.1771 1160.77 66.2578 1161.08 66.2578ZM1167.94 59.0859C1169.11 59.0859 1170.01 59.3411 1170.63 59.8516C1171.26 60.362 1171.57 61.138 1171.57 62.1797V68H1169.91L1169.44 66.8125H1169.38C1169.13 67.125 1168.88 67.3802 1168.62 67.5781C1168.36 67.776 1168.06 67.9219 1167.72 68.0156C1167.38 68.1094 1166.97 68.1562 1166.48 68.1562C1165.97 68.1562 1165.5 68.0573 1165.09 67.8594C1164.69 67.6615 1164.37 67.3594 1164.13 66.9531C1163.9 66.5417 1163.78 66.0208 1163.78 65.3906C1163.78 64.4635 1164.11 63.7812 1164.76 63.3438C1165.41 62.901 1166.38 62.6562 1167.69 62.6094L1169.2 62.5625V62.1797C1169.2 61.7214 1169.08 61.3854 1168.84 61.1719C1168.6 60.9583 1168.27 60.8516 1167.84 60.8516C1167.42 60.8516 1167.01 60.9115 1166.6 61.0312C1166.19 61.151 1165.79 61.3021 1165.38 61.4844L1164.59 59.875C1165.06 59.6302 1165.57 59.4375 1166.15 59.2969C1166.73 59.1562 1167.32 59.0859 1167.94 59.0859ZM1169.2 63.9531L1168.28 63.9844C1167.51 64.0052 1166.97 64.1432 1166.67 64.3984C1166.37 64.6536 1166.23 64.9896 1166.23 65.4062C1166.23 65.7708 1166.33 66.0312 1166.55 66.1875C1166.76 66.3385 1167.04 66.4141 1167.38 66.4141C1167.89 66.4141 1168.32 66.263 1168.67 65.9609C1169.02 65.6589 1169.2 65.2292 1169.2 64.6719V63.9531ZM1177.58 68.1562C1176.71 68.1562 1175.98 68 1175.37 67.6875C1174.76 67.3698 1174.29 66.8802 1173.98 66.2188C1173.66 65.5573 1173.5 64.7109 1173.5 63.6797C1173.5 62.612 1173.68 61.7422 1174.04 61.0703C1174.4 60.3932 1174.91 59.8958 1175.55 59.5781C1176.19 59.2604 1176.94 59.1016 1177.79 59.1016C1178.39 59.1016 1178.91 59.1615 1179.35 59.2812C1179.79 59.3958 1180.18 59.5339 1180.51 59.6953L1179.8 61.5391C1179.43 61.388 1179.08 61.2656 1178.76 61.1719C1178.43 61.0729 1178.11 61.0234 1177.79 61.0234C1177.37 61.0234 1177.02 61.1224 1176.75 61.3203C1176.47 61.513 1176.27 61.8047 1176.13 62.1953C1176 62.5859 1175.93 63.0755 1175.93 63.6641C1175.93 64.2422 1176 64.7214 1176.15 65.1016C1176.29 65.4818 1176.5 65.7656 1176.78 65.9531C1177.06 66.1354 1177.39 66.2266 1177.79 66.2266C1178.28 66.2266 1178.72 66.1615 1179.11 66.0312C1179.49 65.8958 1179.87 65.7083 1180.23 65.4688V67.5078C1179.87 67.737 1179.49 67.901 1179.08 68C1178.69 68.1042 1178.19 68.1562 1177.58 68.1562ZM1185.94 66.2578C1186.2 66.2578 1186.46 66.2318 1186.7 66.1797C1186.95 66.1276 1187.2 66.0625 1187.44 65.9844V67.7578C1187.19 67.8724 1186.87 67.9661 1186.49 68.0391C1186.12 68.1172 1185.7 68.1562 1185.26 68.1562C1184.74 68.1562 1184.27 68.0729 1183.85 67.9062C1183.44 67.7344 1183.11 67.4401 1182.87 67.0234C1182.64 66.6016 1182.52 66.0156 1182.52 65.2656V61.0547H1181.38V60.0469L1182.69 59.25L1183.38 57.4062H1184.91V59.2656H1187.35V61.0547H1184.91V65.2656C1184.91 65.599 1185 65.849 1185.19 66.0156C1185.38 66.1771 1185.63 66.2578 1185.94 66.2578Z" fill="#0D5794"/>
<path d="M1128.19 91.4375V100H1126.9V91.4375H1128.19ZM1127.56 88.2344C1127.77 88.2344 1127.96 88.3047 1128.11 88.4453C1128.26 88.5807 1128.34 88.7943 1128.34 89.0859C1128.34 89.3724 1128.26 89.5859 1128.11 89.7266C1127.96 89.8672 1127.77 89.9375 1127.56 89.9375C1127.34 89.9375 1127.15 89.8672 1127 89.7266C1126.85 89.5859 1126.78 89.3724 1126.78 89.0859C1126.78 88.7943 1126.85 88.5807 1127 88.4453C1127.15 88.3047 1127.34 88.2344 1127.56 88.2344ZM1135 91.2812C1136.01 91.2812 1136.78 91.5312 1137.3 92.0312C1137.82 92.526 1138.08 93.3229 1138.08 94.4219V100H1136.8V94.5078C1136.8 93.7943 1136.64 93.2604 1136.31 92.9062C1135.99 92.5521 1135.49 92.375 1134.82 92.375C1133.87 92.375 1133.2 92.6432 1132.82 93.1797C1132.43 93.7161 1132.24 94.4948 1132.24 95.5156V100H1130.94V91.4375H1131.99L1132.19 92.6719H1132.26C1132.44 92.3698 1132.67 92.1172 1132.95 91.9141C1133.23 91.7057 1133.55 91.5495 1133.9 91.4453C1134.25 91.3359 1134.61 91.2812 1135 91.2812ZM1144.57 92.4531H1142.44V100H1141.14V92.4531H1139.62V91.8281L1141.14 91.3984V90.8281C1141.14 90.1094 1141.25 89.526 1141.46 89.0781C1141.67 88.625 1141.98 88.2917 1142.39 88.0781C1142.8 87.8646 1143.29 87.7578 1143.87 87.7578C1144.2 87.7578 1144.5 87.7865 1144.77 87.8438C1145.05 87.901 1145.29 87.9661 1145.5 88.0391L1145.16 89.0625C1144.99 89.0052 1144.79 88.9531 1144.56 88.9062C1144.34 88.8542 1144.12 88.8281 1143.89 88.8281C1143.39 88.8281 1143.03 88.9896 1142.79 89.3125C1142.55 89.6302 1142.44 90.1302 1142.44 90.8125V91.4375H1144.57V92.4531ZM1153.53 95.7031C1153.53 96.4062 1153.44 97.0339 1153.26 97.5859C1153.07 98.138 1152.81 98.6042 1152.47 98.9844C1152.12 99.3646 1151.71 99.6562 1151.22 99.8594C1150.73 100.057 1150.18 100.156 1149.57 100.156C1149 100.156 1148.47 100.057 1147.99 99.8594C1147.52 99.6562 1147.11 99.3646 1146.76 98.9844C1146.41 98.6042 1146.14 98.138 1145.95 97.5859C1145.76 97.0339 1145.67 96.4062 1145.67 95.7031C1145.67 94.7656 1145.83 93.9688 1146.15 93.3125C1146.46 92.651 1146.92 92.1484 1147.51 91.8047C1148.1 91.4557 1148.81 91.2812 1149.62 91.2812C1150.41 91.2812 1151.09 91.4557 1151.67 91.8047C1152.26 92.1536 1152.71 92.6589 1153.04 93.3203C1153.37 93.9766 1153.53 94.7708 1153.53 95.7031ZM1147.01 95.7031C1147.01 96.3906 1147.11 96.987 1147.29 97.4922C1147.47 97.9974 1147.75 98.388 1148.13 98.6641C1148.51 98.9401 1149 99.0781 1149.6 99.0781C1150.19 99.0781 1150.68 98.9401 1151.06 98.6641C1151.45 98.388 1151.73 97.9974 1151.91 97.4922C1152.1 96.987 1152.19 96.3906 1152.19 95.7031C1152.19 95.0208 1152.1 94.4323 1151.91 93.9375C1151.73 93.4375 1151.45 93.0521 1151.07 92.7812C1150.69 92.5104 1150.2 92.375 1149.59 92.375C1148.7 92.375 1148.05 92.6693 1147.63 93.2578C1147.22 93.8464 1147.01 94.6615 1147.01 95.7031ZM1167.83 94.2969C1167.83 94.7917 1167.78 95.276 1167.66 95.75C1167.55 96.2188 1167.38 96.6432 1167.16 97.0234C1166.93 97.3984 1166.64 97.6979 1166.3 97.9219C1165.96 98.1458 1165.56 98.2578 1165.09 98.2578C1164.61 98.2578 1164.22 98.1172 1163.94 97.8359C1163.65 97.5547 1163.48 97.2214 1163.42 96.8359H1163.35C1163.15 97.2474 1162.86 97.5885 1162.48 97.8594C1162.1 98.125 1161.63 98.2578 1161.07 98.2578C1160.26 98.2578 1159.63 97.9896 1159.19 97.4531C1158.75 96.9115 1158.53 96.1927 1158.53 95.2969C1158.53 94.599 1158.67 93.9818 1158.94 93.4453C1159.23 92.9036 1159.62 92.4792 1160.12 92.1719C1160.63 91.8594 1161.24 91.7031 1161.93 91.7031C1162.39 91.7031 1162.84 91.7422 1163.28 91.8203C1163.72 91.8984 1164.07 91.9844 1164.33 92.0781L1164.17 95.2266C1164.17 95.4193 1164.16 95.5677 1164.16 95.6719C1164.15 95.7708 1164.15 95.849 1164.15 95.9062C1164.15 96.4688 1164.25 96.849 1164.44 97.0469C1164.65 97.2396 1164.89 97.3359 1165.18 97.3359C1165.53 97.3359 1165.82 97.2005 1166.05 96.9297C1166.29 96.6536 1166.48 96.2865 1166.6 95.8281C1166.73 95.3646 1166.79 94.8516 1166.79 94.2891C1166.79 93.2943 1166.59 92.4453 1166.19 91.7422C1165.79 91.0391 1165.23 90.5026 1164.52 90.1328C1163.82 89.763 1163.01 89.5781 1162.09 89.5781C1161.18 89.5781 1160.37 89.7214 1159.66 90.0078C1158.96 90.2943 1158.36 90.7005 1157.87 91.2266C1157.39 91.7474 1157.02 92.3672 1156.77 93.0859C1156.52 93.8047 1156.4 94.599 1156.4 95.4688C1156.4 96.5312 1156.58 97.4349 1156.96 98.1797C1157.34 98.9245 1157.89 99.4922 1158.62 99.8828C1159.36 100.268 1160.25 100.461 1161.3 100.461C1161.94 100.461 1162.55 100.391 1163.14 100.25C1163.73 100.109 1164.25 99.9505 1164.72 99.7734V100.789C1164.26 100.982 1163.75 101.138 1163.18 101.258C1162.61 101.383 1161.99 101.445 1161.3 101.445C1160.05 101.445 1158.98 101.208 1158.08 100.734C1157.19 100.266 1156.51 99.5885 1156.04 98.7031C1155.56 97.8177 1155.33 96.7552 1155.33 95.5156C1155.33 94.5104 1155.48 93.5859 1155.79 92.7422C1156.1 91.8984 1156.55 91.1667 1157.13 90.5469C1157.72 89.9271 1158.43 89.4479 1159.26 89.1094C1160.1 88.7656 1161.05 88.5938 1162.09 88.5938C1163.21 88.5938 1164.2 88.8255 1165.06 89.2891C1165.93 89.7474 1166.6 90.4036 1167.09 91.2578C1167.59 92.1068 1167.83 93.1198 1167.83 94.2969ZM1159.69 95.3281C1159.69 96.0208 1159.83 96.5286 1160.11 96.8516C1160.38 97.1745 1160.77 97.3359 1161.26 97.3359C1161.86 97.3359 1162.3 97.1094 1162.58 96.6562C1162.87 96.2031 1163.04 95.6042 1163.08 94.8594L1163.17 92.8203C1163.02 92.7734 1162.83 92.7344 1162.62 92.7031C1162.4 92.6667 1162.18 92.6484 1161.94 92.6484C1161.41 92.6484 1160.97 92.776 1160.64 93.0312C1160.31 93.2865 1160.07 93.6172 1159.92 94.0234C1159.77 94.4297 1159.69 94.8646 1159.69 95.3281ZM1174.17 91.2812C1175.19 91.2812 1175.95 91.5312 1176.48 92.0312C1177 92.526 1177.26 93.3229 1177.26 94.4219V100H1175.98V94.5078C1175.98 93.7943 1175.81 93.2604 1175.48 92.9062C1175.16 92.5521 1174.66 92.375 1173.99 92.375C1173.04 92.375 1172.38 92.6432 1171.99 93.1797C1171.61 93.7161 1171.41 94.4948 1171.41 95.5156V100H1170.12V91.4375H1171.16L1171.36 92.6719H1171.43C1171.61 92.3698 1171.84 92.1172 1172.12 91.9141C1172.41 91.7057 1172.72 91.5495 1173.07 91.4453C1173.42 91.3359 1173.79 91.2812 1174.17 91.2812ZM1183.95 91.2812C1185.02 91.2812 1185.87 91.6484 1186.51 92.3828C1187.14 93.1172 1187.46 94.2214 1187.46 95.6953C1187.46 96.6693 1187.31 97.487 1187.02 98.1484C1186.73 98.8099 1186.32 99.3099 1185.79 99.6484C1185.26 99.987 1184.64 100.156 1183.92 100.156C1183.47 100.156 1183.07 100.096 1182.73 99.9766C1182.38 99.8568 1182.09 99.6953 1181.84 99.4922C1181.6 99.2891 1181.39 99.0677 1181.23 98.8281H1181.14C1181.16 99.0312 1181.17 99.276 1181.19 99.5625C1181.22 99.849 1181.23 100.099 1181.23 100.312V103.828H1179.93V91.4375H1181L1181.17 92.7031H1181.23C1181.4 92.4427 1181.6 92.2057 1181.84 91.9922C1182.08 91.7734 1182.37 91.6016 1182.72 91.4766C1183.07 91.3464 1183.48 91.2812 1183.95 91.2812ZM1183.73 92.375C1183.13 92.375 1182.65 92.4896 1182.29 92.7188C1181.93 92.9479 1181.67 93.2917 1181.5 93.75C1181.33 94.2031 1181.24 94.7734 1181.23 95.4609V95.7109C1181.23 96.4349 1181.31 97.0469 1181.47 97.5469C1181.63 98.0469 1181.89 98.4271 1182.26 98.6875C1182.63 98.9479 1183.12 99.0781 1183.74 99.0781C1184.27 99.0781 1184.71 98.9349 1185.07 98.6484C1185.42 98.362 1185.69 97.9635 1185.86 97.4531C1186.04 96.9375 1186.12 96.3464 1186.12 95.6797C1186.12 94.6693 1185.93 93.8672 1185.53 93.2734C1185.14 92.6745 1184.54 92.375 1183.73 92.375ZM1191.02 87.8438V91.4766C1191.02 91.6849 1191.02 91.8958 1191.01 92.1094C1191 92.3177 1190.98 92.5104 1190.95 92.6875H1191.04C1191.21 92.3854 1191.44 92.1328 1191.71 91.9297C1191.99 91.7214 1192.3 91.5651 1192.65 91.4609C1193 91.3516 1193.37 91.2969 1193.76 91.2969C1194.44 91.2969 1195.02 91.4062 1195.48 91.625C1195.94 91.8438 1196.29 92.1823 1196.51 92.6406C1196.75 93.099 1196.87 93.6927 1196.87 94.4219V100H1195.58V94.5078C1195.58 93.7943 1195.42 93.2604 1195.09 92.9062C1194.77 92.5521 1194.27 92.375 1193.6 92.375C1192.96 92.375 1192.46 92.4974 1192.08 92.7422C1191.7 92.9818 1191.43 93.3359 1191.26 93.8047C1191.1 94.2734 1191.02 94.8464 1191.02 95.5234V100H1189.73V87.8438H1191.02ZM1202.83 91.2812C1203.56 91.2812 1204.19 91.4427 1204.71 91.7656C1205.23 92.0885 1205.63 92.5417 1205.91 93.125C1206.18 93.7031 1206.32 94.3802 1206.32 95.1562V95.9609H1200.41C1200.42 96.9661 1200.67 97.7318 1201.16 98.2578C1201.64 98.7839 1202.32 99.0469 1203.2 99.0469C1203.74 99.0469 1204.22 98.9974 1204.64 98.8984C1205.06 98.7995 1205.49 98.6536 1205.94 98.4609V99.6016C1205.5 99.7943 1205.07 99.9349 1204.65 100.023C1204.23 100.112 1203.73 100.156 1203.15 100.156C1202.32 100.156 1201.61 99.9896 1200.99 99.6562C1200.38 99.3177 1199.91 98.8229 1199.57 98.1719C1199.23 97.5208 1199.06 96.724 1199.06 95.7812C1199.06 94.8594 1199.21 94.0625 1199.52 93.3906C1199.83 92.7135 1200.27 92.1927 1200.83 91.8281C1201.4 91.4635 1202.07 91.2812 1202.83 91.2812ZM1202.82 92.3438C1202.13 92.3438 1201.57 92.5703 1201.16 93.0234C1200.75 93.4766 1200.51 94.1094 1200.43 94.9219H1204.96C1204.95 94.4115 1204.87 93.9635 1204.72 93.5781C1204.57 93.1875 1204.33 92.8854 1204.02 92.6719C1203.71 92.4531 1203.31 92.3438 1202.82 92.3438ZM1209.83 100H1208.52V87.8438H1209.83V100ZM1216.59 91.2812C1217.66 91.2812 1218.51 91.6484 1219.15 92.3828C1219.78 93.1172 1220.1 94.2214 1220.1 95.6953C1220.1 96.6693 1219.95 97.487 1219.66 98.1484C1219.37 98.8099 1218.96 99.3099 1218.43 99.6484C1217.9 99.987 1217.28 100.156 1216.56 100.156C1216.11 100.156 1215.71 100.096 1215.37 99.9766C1215.02 99.8568 1214.73 99.6953 1214.48 99.4922C1214.24 99.2891 1214.04 99.0677 1213.87 98.8281H1213.78C1213.8 99.0312 1213.81 99.276 1213.83 99.5625C1213.86 99.849 1213.87 100.099 1213.87 100.312V103.828H1212.57V91.4375H1213.64L1213.81 92.7031H1213.87C1214.04 92.4427 1214.24 92.2057 1214.48 91.9922C1214.72 91.7734 1215.01 91.6016 1215.36 91.4766C1215.71 91.3464 1216.12 91.2812 1216.59 91.2812ZM1216.37 92.375C1215.77 92.375 1215.29 92.4896 1214.93 92.7188C1214.57 92.9479 1214.31 93.2917 1214.14 93.75C1213.97 94.2031 1213.88 94.7734 1213.87 95.4609V95.7109C1213.87 96.4349 1213.95 97.0469 1214.11 97.5469C1214.27 98.0469 1214.53 98.4271 1214.9 98.6875C1215.27 98.9479 1215.76 99.0781 1216.38 99.0781C1216.91 99.0781 1217.36 98.9349 1217.71 98.6484C1218.06 98.362 1218.33 97.9635 1218.5 97.4531C1218.68 96.9375 1218.76 96.3464 1218.76 95.6797C1218.76 94.6693 1218.57 93.8672 1218.17 93.2734C1217.78 92.6745 1217.18 92.375 1216.37 92.375ZM1225.66 91.2812C1226.39 91.2812 1227.02 91.4427 1227.54 91.7656C1228.06 92.0885 1228.46 92.5417 1228.73 93.125C1229.01 93.7031 1229.15 94.3802 1229.15 95.1562V95.9609H1223.23C1223.25 96.9661 1223.5 97.7318 1223.98 98.2578C1224.47 98.7839 1225.15 99.0469 1226.03 99.0469C1226.57 99.0469 1227.05 98.9974 1227.47 98.8984C1227.88 98.7995 1228.32 98.6536 1228.76 98.4609V99.6016C1228.33 99.7943 1227.9 99.9349 1227.48 100.023C1227.05 100.112 1226.55 100.156 1225.98 100.156C1225.15 100.156 1224.43 99.9896 1223.82 99.6562C1223.21 99.3177 1222.74 98.8229 1222.4 98.1719C1222.06 97.5208 1221.89 96.724 1221.89 95.7812C1221.89 94.8594 1222.04 94.0625 1222.35 93.3906C1222.66 92.7135 1223.1 92.1927 1223.66 91.8281C1224.23 91.4635 1224.9 91.2812 1225.66 91.2812ZM1225.65 92.3438C1224.95 92.3438 1224.4 92.5703 1223.99 93.0234C1223.58 93.4766 1223.33 94.1094 1223.26 94.9219H1227.79C1227.78 94.4115 1227.7 93.9635 1227.55 93.5781C1227.39 93.1875 1227.16 92.8854 1226.85 92.6719C1226.54 92.4531 1226.14 92.3438 1225.65 92.3438ZM1235.24 91.2812C1235.41 91.2812 1235.59 91.2917 1235.78 91.3125C1235.97 91.3281 1236.13 91.3516 1236.28 91.3828L1236.12 92.5859C1235.98 92.5495 1235.82 92.5208 1235.65 92.5C1235.48 92.4792 1235.31 92.4688 1235.16 92.4688C1234.82 92.4688 1234.49 92.5391 1234.19 92.6797C1233.88 92.8151 1233.62 93.013 1233.39 93.2734C1233.16 93.5286 1232.98 93.8385 1232.85 94.2031C1232.72 94.5625 1232.66 94.9635 1232.66 95.4062V100H1231.35V91.4375H1232.43L1232.57 93.0156H1232.62C1232.8 92.6979 1233.01 92.4089 1233.26 92.1484C1233.51 91.8828 1233.8 91.6719 1234.13 91.5156C1234.46 91.3594 1234.83 91.2812 1235.24 91.2812ZM1237.7 99.1875C1237.7 98.8229 1237.79 98.5651 1237.97 98.4141C1238.14 98.2578 1238.36 98.1797 1238.62 98.1797C1238.88 98.1797 1239.11 98.2578 1239.29 98.4141C1239.47 98.5651 1239.56 98.8229 1239.56 99.1875C1239.56 99.5469 1239.47 99.8099 1239.29 99.9766C1239.11 100.138 1238.88 100.219 1238.62 100.219C1238.36 100.219 1238.14 100.138 1237.97 99.9766C1237.79 99.8099 1237.7 99.5469 1237.7 99.1875ZM1245.53 100.156C1244.76 100.156 1244.08 99.9974 1243.49 99.6797C1242.9 99.362 1242.44 98.8776 1242.12 98.2266C1241.79 97.5755 1241.62 96.7552 1241.62 95.7656C1241.62 94.7292 1241.8 93.8828 1242.14 93.2266C1242.49 92.5651 1242.97 92.0755 1243.58 91.7578C1244.19 91.4401 1244.88 91.2812 1245.66 91.2812C1246.08 91.2812 1246.49 91.3255 1246.89 91.4141C1247.29 91.4974 1247.62 91.6042 1247.87 91.7344L1247.48 92.8203C1247.22 92.7161 1246.92 92.6224 1246.58 92.5391C1246.24 92.4557 1245.92 92.4141 1245.62 92.4141C1245.03 92.4141 1244.54 92.5417 1244.14 92.7969C1243.75 93.0521 1243.45 93.4271 1243.26 93.9219C1243.06 94.4167 1242.97 95.026 1242.97 95.75C1242.97 96.4427 1243.06 97.0339 1243.25 97.5234C1243.44 98.013 1243.73 98.388 1244.1 98.6484C1244.48 98.9036 1244.95 99.0312 1245.52 99.0312C1245.98 99.0312 1246.38 98.9844 1246.75 98.8906C1247.11 98.7917 1247.44 98.6771 1247.74 98.5469V99.7031C1247.45 99.849 1247.13 99.9609 1246.78 100.039C1246.43 100.117 1246.01 100.156 1245.53 100.156ZM1257.16 95.7031C1257.16 96.4062 1257.06 97.0339 1256.88 97.5859C1256.7 98.138 1256.44 98.6042 1256.09 98.9844C1255.75 99.3646 1255.33 99.6562 1254.84 99.8594C1254.36 100.057 1253.81 100.156 1253.19 100.156C1252.62 100.156 1252.1 100.057 1251.62 99.8594C1251.14 99.6562 1250.73 99.3646 1250.38 98.9844C1250.04 98.6042 1249.77 98.138 1249.58 97.5859C1249.39 97.0339 1249.3 96.4062 1249.3 95.7031C1249.3 94.7656 1249.45 93.9688 1249.77 93.3125C1250.09 92.651 1250.54 92.1484 1251.13 91.8047C1251.73 91.4557 1252.43 91.2812 1253.25 91.2812C1254.03 91.2812 1254.71 91.4557 1255.3 91.8047C1255.88 92.1536 1256.34 92.6589 1256.66 93.3203C1256.99 93.9766 1257.16 94.7708 1257.16 95.7031ZM1250.64 95.7031C1250.64 96.3906 1250.73 96.987 1250.91 97.4922C1251.1 97.9974 1251.38 98.388 1251.76 98.6641C1252.14 98.9401 1252.63 99.0781 1253.23 99.0781C1253.82 99.0781 1254.31 98.9401 1254.69 98.6641C1255.07 98.388 1255.36 97.9974 1255.54 97.4922C1255.72 96.987 1255.81 96.3906 1255.81 95.7031C1255.81 95.0208 1255.72 94.4323 1255.54 93.9375C1255.36 93.4375 1255.07 93.0521 1254.69 92.7812C1254.31 92.5104 1253.82 92.375 1253.22 92.375C1252.33 92.375 1251.67 92.6693 1251.26 93.2578C1250.85 93.8464 1250.64 94.6615 1250.64 95.7031ZM1268.69 91.2812C1269.64 91.2812 1270.35 91.5286 1270.83 92.0234C1271.31 92.513 1271.55 93.3021 1271.55 94.3906V100H1270.26V94.4531C1270.26 93.7604 1270.11 93.2422 1269.81 92.8984C1269.51 92.5495 1269.07 92.375 1268.48 92.375C1267.66 92.375 1267.05 92.6146 1266.68 93.0938C1266.3 93.5729 1266.12 94.2786 1266.12 95.2109V100H1264.83V94.4531C1264.83 93.9896 1264.76 93.6042 1264.62 93.2969C1264.49 92.9896 1264.3 92.7604 1264.03 92.6094C1263.77 92.4531 1263.44 92.375 1263.04 92.375C1262.47 92.375 1262.01 92.4922 1261.67 92.7266C1261.33 92.9609 1261.08 93.3099 1260.92 93.7734C1260.77 94.2318 1260.69 94.7969 1260.69 95.4688V100H1259.4V91.4375H1260.44L1260.64 92.6484H1260.71C1260.88 92.3516 1261.1 92.1016 1261.36 91.8984C1261.62 91.6953 1261.91 91.5417 1262.23 91.4375C1262.56 91.3333 1262.9 91.2812 1263.26 91.2812C1263.92 91.2812 1264.46 91.4036 1264.9 91.6484C1265.34 91.888 1265.66 92.2552 1265.86 92.75H1265.93C1266.21 92.2552 1266.6 91.888 1267.08 91.6484C1267.57 91.4036 1268.11 91.2812 1268.69 91.2812Z" fill="#0D5794"/>
<path d="M1131.98 117.586C1131.35 117.586 1130.78 117.695 1130.27 117.914C1129.77 118.128 1129.35 118.44 1128.99 118.852C1128.64 119.258 1128.37 119.75 1128.19 120.328C1128 120.906 1127.91 121.557 1127.91 122.281C1127.91 123.24 1128.05 124.073 1128.35 124.781C1128.65 125.484 1129.1 126.029 1129.69 126.414C1130.29 126.799 1131.04 126.992 1131.94 126.992C1132.45 126.992 1132.93 126.951 1133.37 126.867C1133.83 126.779 1134.27 126.669 1134.69 126.539V127.695C1134.28 127.852 1133.84 127.966 1133.38 128.039C1132.92 128.117 1132.38 128.156 1131.75 128.156C1130.59 128.156 1129.62 127.917 1128.83 127.438C1128.06 126.953 1127.48 126.271 1127.08 125.391C1126.7 124.51 1126.51 123.471 1126.51 122.273C1126.51 121.409 1126.63 120.62 1126.87 119.906C1127.11 119.188 1127.46 118.568 1127.93 118.047C1128.4 117.526 1128.97 117.125 1129.65 116.844C1130.33 116.557 1131.11 116.414 1131.99 116.414C1132.57 116.414 1133.13 116.471 1133.66 116.586C1134.2 116.701 1134.68 116.865 1135.12 117.078L1134.58 118.203C1134.22 118.036 1133.82 117.893 1133.38 117.773C1132.95 117.648 1132.48 117.586 1131.98 117.586ZM1140.27 119.281C1141 119.281 1141.63 119.443 1142.15 119.766C1142.67 120.089 1143.07 120.542 1143.34 121.125C1143.62 121.703 1143.76 122.38 1143.76 123.156V123.961H1137.84C1137.86 124.966 1138.11 125.732 1138.59 126.258C1139.08 126.784 1139.76 127.047 1140.64 127.047C1141.18 127.047 1141.66 126.997 1142.08 126.898C1142.49 126.799 1142.93 126.654 1143.37 126.461V127.602C1142.94 127.794 1142.51 127.935 1142.08 128.023C1141.66 128.112 1141.16 128.156 1140.58 128.156C1139.76 128.156 1139.04 127.99 1138.43 127.656C1137.82 127.318 1137.35 126.823 1137.01 126.172C1136.67 125.521 1136.5 124.724 1136.5 123.781C1136.5 122.859 1136.65 122.062 1136.96 121.391C1137.27 120.714 1137.71 120.193 1138.27 119.828C1138.84 119.464 1139.51 119.281 1140.27 119.281ZM1140.26 120.344C1139.56 120.344 1139.01 120.57 1138.6 121.023C1138.19 121.477 1137.94 122.109 1137.87 122.922H1142.4C1142.39 122.411 1142.31 121.964 1142.16 121.578C1142 121.188 1141.77 120.885 1141.46 120.672C1141.15 120.453 1140.75 120.344 1140.26 120.344ZM1147.26 128H1145.96V115.844H1147.26V128ZM1151.31 128H1150.01V115.844H1151.31V128ZM1153.86 127.188C1153.86 126.823 1153.95 126.565 1154.12 126.414C1154.3 126.258 1154.52 126.18 1154.77 126.18C1155.04 126.18 1155.26 126.258 1155.44 126.414C1155.63 126.565 1155.72 126.823 1155.72 127.188C1155.72 127.547 1155.63 127.81 1155.44 127.977C1155.26 128.138 1155.04 128.219 1154.77 128.219C1154.52 128.219 1154.3 128.138 1154.12 127.977C1153.95 127.81 1153.86 127.547 1153.86 127.188ZM1153.86 120.258C1153.86 119.883 1153.95 119.62 1154.12 119.469C1154.3 119.312 1154.52 119.234 1154.77 119.234C1155.04 119.234 1155.26 119.312 1155.44 119.469C1155.63 119.62 1155.72 119.883 1155.72 120.258C1155.72 120.612 1155.63 120.87 1155.44 121.031C1155.26 121.193 1155.04 121.273 1154.77 121.273C1154.52 121.273 1154.3 121.193 1154.12 121.031C1153.95 120.87 1153.86 120.612 1153.86 120.258ZM1161.95 123.117C1161.95 122.43 1162 121.758 1162.09 121.102C1162.19 120.445 1162.36 119.836 1162.58 119.273C1162.81 118.706 1163.13 118.208 1163.52 117.781C1163.92 117.354 1164.41 117.021 1165 116.781C1165.59 116.536 1166.3 116.414 1167.13 116.414C1167.37 116.414 1167.62 116.427 1167.89 116.453C1168.16 116.474 1168.38 116.51 1168.56 116.562V117.68C1168.37 117.612 1168.15 117.562 1167.9 117.531C1167.65 117.5 1167.41 117.484 1167.16 117.484C1166.19 117.484 1165.42 117.695 1164.87 118.117C1164.31 118.539 1163.92 119.112 1163.67 119.836C1163.43 120.555 1163.29 121.365 1163.25 122.266H1163.33C1163.5 122.005 1163.7 121.771 1163.95 121.562C1164.2 121.349 1164.5 121.18 1164.86 121.055C1165.22 120.93 1165.63 120.867 1166.11 120.867C1166.77 120.867 1167.36 121.003 1167.85 121.273C1168.35 121.544 1168.74 121.938 1169.01 122.453C1169.28 122.969 1169.42 123.594 1169.42 124.328C1169.42 125.115 1169.27 125.794 1168.98 126.367C1168.69 126.94 1168.27 127.383 1167.73 127.695C1167.2 128.003 1166.56 128.156 1165.81 128.156C1165.25 128.156 1164.74 128.049 1164.27 127.836C1163.8 127.622 1163.39 127.305 1163.05 126.883C1162.7 126.461 1162.43 125.938 1162.24 125.312C1162.05 124.682 1161.95 123.951 1161.95 123.117ZM1165.8 127.062C1166.5 127.062 1167.07 126.836 1167.5 126.383C1167.93 125.93 1168.14 125.245 1168.14 124.328C1168.14 123.578 1167.95 122.984 1167.57 122.547C1167.19 122.109 1166.62 121.891 1165.85 121.891C1165.33 121.891 1164.88 122 1164.49 122.219C1164.11 122.432 1163.81 122.703 1163.59 123.031C1163.38 123.359 1163.27 123.693 1163.27 124.031C1163.27 124.375 1163.32 124.724 1163.42 125.078C1163.52 125.432 1163.68 125.76 1163.89 126.062C1164.1 126.365 1164.36 126.607 1164.68 126.789C1165 126.971 1165.37 127.062 1165.8 127.062ZM1175.82 128H1174.55V119.906C1174.55 119.599 1174.55 119.336 1174.55 119.117C1174.56 118.893 1174.56 118.69 1174.57 118.508C1174.58 118.32 1174.59 118.13 1174.61 117.938C1174.45 118.104 1174.3 118.247 1174.16 118.367C1174.01 118.482 1173.84 118.625 1173.63 118.797L1172.33 119.844L1171.65 118.961L1174.74 116.578H1175.82V128ZM1181.62 128L1186.31 117.766H1180.08V116.578H1187.7V117.578L1183.05 128H1181.62ZM1189.69 127.188C1189.69 126.823 1189.77 126.565 1189.95 126.414C1190.13 126.258 1190.35 126.18 1190.6 126.18C1190.87 126.18 1191.09 126.258 1191.27 126.414C1191.45 126.565 1191.55 126.823 1191.55 127.188C1191.55 127.547 1191.45 127.81 1191.27 127.977C1191.09 128.138 1190.87 128.219 1190.6 128.219C1190.35 128.219 1190.13 128.138 1189.95 127.977C1189.77 127.81 1189.69 127.547 1189.69 127.188ZM1200.57 119.242C1200.57 119.753 1200.47 120.195 1200.27 120.57C1200.07 120.945 1199.8 121.253 1199.44 121.492C1199.09 121.727 1198.67 121.891 1198.19 121.984V122.047C1199.1 122.161 1199.78 122.453 1200.23 122.922C1200.69 123.391 1200.92 124.005 1200.92 124.766C1200.92 125.427 1200.76 126.013 1200.45 126.523C1200.14 127.034 1199.67 127.435 1199.03 127.727C1198.39 128.013 1197.58 128.156 1196.58 128.156C1195.98 128.156 1195.42 128.107 1194.91 128.008C1194.39 127.914 1193.91 127.755 1193.44 127.531V126.312C1193.91 126.547 1194.43 126.732 1194.98 126.867C1195.54 126.997 1196.08 127.062 1196.6 127.062C1197.64 127.062 1198.39 126.857 1198.86 126.445C1199.32 126.029 1199.55 125.461 1199.55 124.742C1199.55 124.247 1199.42 123.849 1199.16 123.547C1198.91 123.24 1198.54 123.016 1198.05 122.875C1197.57 122.729 1197 122.656 1196.32 122.656H1195.18V121.547H1196.33C1196.95 121.547 1197.47 121.456 1197.91 121.273C1198.34 121.091 1198.67 120.836 1198.89 120.508C1199.12 120.174 1199.23 119.781 1199.23 119.328C1199.23 118.75 1199.04 118.305 1198.66 117.992C1198.27 117.674 1197.75 117.516 1197.08 117.516C1196.68 117.516 1196.31 117.557 1195.98 117.641C1195.64 117.724 1195.33 117.839 1195.04 117.984C1194.75 118.13 1194.45 118.299 1194.16 118.492L1193.51 117.602C1193.92 117.279 1194.43 117 1195.03 116.766C1195.63 116.531 1196.31 116.414 1197.07 116.414C1198.24 116.414 1199.11 116.68 1199.69 117.211C1200.28 117.742 1200.57 118.419 1200.57 119.242ZM1206.27 121.016C1207.05 121.016 1207.72 121.148 1208.3 121.414C1208.87 121.674 1209.31 122.055 1209.62 122.555C1209.94 123.055 1210.1 123.661 1210.1 124.375C1210.1 125.156 1209.93 125.831 1209.59 126.398C1209.25 126.961 1208.77 127.396 1208.13 127.703C1207.5 128.005 1206.74 128.156 1205.85 128.156C1205.26 128.156 1204.7 128.104 1204.19 128C1203.68 127.896 1203.25 127.74 1202.91 127.531V126.297C1203.29 126.526 1203.75 126.708 1204.29 126.844C1204.83 126.979 1205.36 127.047 1205.87 127.047C1206.44 127.047 1206.95 126.956 1207.38 126.773C1207.82 126.586 1208.16 126.305 1208.4 125.93C1208.64 125.549 1208.76 125.073 1208.76 124.5C1208.76 123.74 1208.53 123.154 1208.06 122.742C1207.6 122.326 1206.86 122.117 1205.86 122.117C1205.54 122.117 1205.18 122.143 1204.8 122.195C1204.41 122.247 1204.09 122.305 1203.84 122.367L1203.19 121.938L1203.62 116.578H1209.3V117.766H1204.73L1204.44 121.211C1204.64 121.169 1204.9 121.128 1205.21 121.086C1205.52 121.039 1205.88 121.016 1206.27 121.016ZM1219.32 121.445C1219.32 122.138 1219.27 122.812 1219.17 123.469C1219.08 124.125 1218.91 124.737 1218.68 125.305C1218.45 125.872 1218.14 126.37 1217.74 126.797C1217.35 127.224 1216.85 127.56 1216.25 127.805C1215.66 128.044 1214.94 128.164 1214.12 128.164C1213.89 128.164 1213.64 128.148 1213.35 128.117C1213.06 128.091 1212.83 128.052 1212.65 128V126.875C1212.84 126.943 1213.07 126.997 1213.33 127.039C1213.59 127.076 1213.84 127.094 1214.09 127.094C1215.07 127.094 1215.83 126.885 1216.39 126.469C1216.95 126.047 1217.35 125.477 1217.59 124.758C1217.84 124.034 1217.98 123.221 1218.01 122.32H1217.91C1217.76 122.57 1217.55 122.802 1217.3 123.016C1217.05 123.224 1216.74 123.393 1216.38 123.523C1216.02 123.648 1215.6 123.711 1215.12 123.711C1214.46 123.711 1213.88 123.576 1213.39 123.305C1212.9 123.034 1212.52 122.641 1212.24 122.125C1211.97 121.609 1211.83 120.987 1211.83 120.258C1211.83 119.471 1211.98 118.792 1212.28 118.219C1212.58 117.641 1213 117.195 1213.55 116.883C1214.09 116.57 1214.73 116.414 1215.46 116.414C1216.02 116.414 1216.54 116.521 1217.01 116.734C1217.48 116.948 1217.88 117.268 1218.23 117.695C1218.57 118.117 1218.84 118.641 1219.03 119.266C1219.22 119.891 1219.32 120.617 1219.32 121.445ZM1215.46 117.516C1214.77 117.516 1214.2 117.742 1213.77 118.195C1213.35 118.648 1213.13 119.331 1213.13 120.242C1213.13 120.997 1213.32 121.594 1213.69 122.031C1214.06 122.469 1214.63 122.688 1215.4 122.688C1215.93 122.688 1216.39 122.581 1216.77 122.367C1217.16 122.154 1217.46 121.883 1217.67 121.555C1217.88 121.227 1217.99 120.891 1217.99 120.547C1217.99 120.203 1217.94 119.854 1217.83 119.5C1217.74 119.146 1217.58 118.82 1217.37 118.523C1217.17 118.221 1216.9 117.979 1216.58 117.797C1216.27 117.609 1215.89 117.516 1215.46 117.516ZM1221.36 127.188C1221.36 126.823 1221.45 126.565 1221.62 126.414C1221.8 126.258 1222.02 126.18 1222.27 126.18C1222.54 126.18 1222.76 126.258 1222.94 126.414C1223.13 126.565 1223.22 126.823 1223.22 127.188C1223.22 127.547 1223.13 127.81 1222.94 127.977C1222.76 128.138 1222.54 128.219 1222.27 128.219C1222.02 128.219 1221.8 128.138 1221.62 127.977C1221.45 127.81 1221.36 127.547 1221.36 127.188ZM1225.3 123.117C1225.3 122.43 1225.34 121.758 1225.44 121.102C1225.54 120.445 1225.7 119.836 1225.93 119.273C1226.16 118.706 1226.47 118.208 1226.87 117.781C1227.26 117.354 1227.75 117.021 1228.34 116.781C1228.94 116.536 1229.65 116.414 1230.48 116.414C1230.71 116.414 1230.96 116.427 1231.23 116.453C1231.5 116.474 1231.73 116.51 1231.91 116.562V117.68C1231.71 117.612 1231.49 117.562 1231.24 117.531C1231 117.5 1230.75 117.484 1230.5 117.484C1229.53 117.484 1228.77 117.695 1228.21 118.117C1227.66 118.539 1227.26 119.112 1227.01 119.836C1226.77 120.555 1226.63 121.365 1226.59 122.266H1226.68C1226.84 122.005 1227.05 121.771 1227.3 121.562C1227.55 121.349 1227.85 121.18 1228.2 121.055C1228.56 120.93 1228.98 120.867 1229.45 120.867C1230.12 120.867 1230.7 121.003 1231.19 121.273C1231.69 121.544 1232.08 121.938 1232.35 122.453C1232.63 122.969 1232.76 123.594 1232.76 124.328C1232.76 125.115 1232.62 125.794 1232.33 126.367C1232.04 126.94 1231.62 127.383 1231.08 127.695C1230.54 128.003 1229.9 128.156 1229.16 128.156C1228.6 128.156 1228.08 128.049 1227.62 127.836C1227.15 127.622 1226.74 127.305 1226.39 126.883C1226.05 126.461 1225.78 125.938 1225.58 125.312C1225.39 124.682 1225.3 123.951 1225.3 123.117ZM1229.14 127.062C1229.85 127.062 1230.42 126.836 1230.84 126.383C1231.27 125.93 1231.48 125.245 1231.48 124.328C1231.48 123.578 1231.29 122.984 1230.91 122.547C1230.53 122.109 1229.96 121.891 1229.19 121.891C1228.67 121.891 1228.22 122 1227.83 122.219C1227.45 122.432 1227.15 122.703 1226.94 123.031C1226.72 123.359 1226.62 123.693 1226.62 124.031C1226.62 124.375 1226.67 124.724 1226.76 125.078C1226.87 125.432 1227.02 125.76 1227.23 126.062C1227.44 126.365 1227.7 126.607 1228.02 126.789C1228.34 126.971 1228.71 127.062 1229.14 127.062ZM1241.83 121.445C1241.83 122.138 1241.79 122.812 1241.69 123.469C1241.59 124.125 1241.43 124.737 1241.19 125.305C1240.96 125.872 1240.65 126.37 1240.26 126.797C1239.86 127.224 1239.36 127.56 1238.76 127.805C1238.17 128.044 1237.46 128.164 1236.63 128.164C1236.41 128.164 1236.15 128.148 1235.87 128.117C1235.58 128.091 1235.35 128.052 1235.16 128V126.875C1235.36 126.943 1235.58 126.997 1235.84 127.039C1236.1 127.076 1236.36 127.094 1236.61 127.094C1237.58 127.094 1238.35 126.885 1238.91 126.469C1239.46 126.047 1239.86 125.477 1240.11 124.758C1240.35 124.034 1240.49 123.221 1240.52 122.32H1240.43C1240.27 122.57 1240.07 122.802 1239.81 123.016C1239.56 123.224 1239.26 123.393 1238.9 123.523C1238.54 123.648 1238.12 123.711 1237.64 123.711C1236.98 123.711 1236.4 123.576 1235.91 123.305C1235.42 123.034 1235.03 122.641 1234.76 122.125C1234.49 121.609 1234.35 120.987 1234.35 120.258C1234.35 119.471 1234.5 118.792 1234.8 118.219C1235.1 117.641 1235.52 117.195 1236.06 116.883C1236.6 116.57 1237.24 116.414 1237.98 116.414C1238.54 116.414 1239.05 116.521 1239.52 116.734C1239.99 116.948 1240.4 117.268 1240.74 117.695C1241.09 118.117 1241.36 118.641 1241.55 119.266C1241.74 119.891 1241.83 120.617 1241.83 121.445ZM1237.98 117.516C1237.28 117.516 1236.72 117.742 1236.29 118.195C1235.86 118.648 1235.65 119.331 1235.65 120.242C1235.65 120.997 1235.83 121.594 1236.2 122.031C1236.57 122.469 1237.14 122.688 1237.91 122.688C1238.44 122.688 1238.9 122.581 1239.29 122.367C1239.68 122.154 1239.98 121.883 1240.19 121.555C1240.4 121.227 1240.51 120.891 1240.51 120.547C1240.51 120.203 1240.45 119.854 1240.35 119.5C1240.25 119.146 1240.1 118.82 1239.89 118.523C1239.68 118.221 1239.42 117.979 1239.1 117.797C1238.78 117.609 1238.41 117.516 1237.98 117.516ZM1244.97 128L1249.66 117.766H1243.43V116.578H1251.05V117.578L1246.39 128H1244.97ZM1257.48 128H1256.21V119.906C1256.21 119.599 1256.21 119.336 1256.21 119.117C1256.21 118.893 1256.22 118.69 1256.23 118.508C1256.24 118.32 1256.25 118.13 1256.26 117.938C1256.1 118.104 1255.95 118.247 1255.81 118.367C1255.67 118.482 1255.5 118.625 1255.29 118.797L1253.98 119.844L1253.3 118.961L1256.4 116.578H1257.48V128Z" fill="#0D5794"/>
</svg>
