<svg width="1440" height="80" viewBox="0 0 1440 80" fill="none" xmlns="http://www.w3.org/2000/svg">
<rect width="1440" height="80" fill="white"/>
<g clip-path="url(#clip0_1_486)">
<path d="M94.0683 49.813H91.0627V32.426H93.8744V35.0761H93.9713C94.6392 34.0635 95.458 33.2771 96.4275 32.7169C97.397 32.1783 98.4958 31.9089 99.7239 31.9089C101.512 31.9089 102.902 32.4907 103.893 33.6541C104.862 34.8391 105.347 36.4227 105.347 38.4048V49.813H102.342V38.8573C102.342 37.4568 102.029 36.3903 101.404 35.6578C100.78 34.9253 99.8639 34.559 98.6574 34.559C97.3001 34.559 96.1905 35.033 95.3287 35.981C94.4884 36.9074 94.0683 38.1894 94.0683 39.8268V49.813ZM118.856 31.9089C120.278 31.9089 121.506 32.286 122.54 33.0401C123.596 33.7726 124.415 34.8175 124.996 36.1749C125.6 37.5107 125.901 39.0619 125.901 40.8286V41.4104C125.901 43.1986 125.61 44.7714 125.029 46.1287C124.469 47.4646 123.682 48.4987 122.67 49.2313C121.657 49.9853 120.461 50.3624 119.082 50.3624C117.876 50.3624 116.82 50.0931 115.915 49.5544C115.01 48.9943 114.267 48.2294 113.685 47.2599H113.588V56.6643H110.55V32.4583H113.33V35.3023H113.459C113.998 34.2466 114.73 33.4171 115.657 32.8138C116.583 32.2106 117.649 31.9089 118.856 31.9089ZM118.21 34.6236C116.766 34.6236 115.613 35.2053 114.752 36.3688C113.89 37.5107 113.459 39.0404 113.459 40.9579V41.3457C113.459 43.2632 113.89 44.7929 114.752 45.9348C115.613 47.0767 116.766 47.6477 118.21 47.6477C119.653 47.6477 120.774 47.0875 121.571 45.9672C122.389 44.8468 122.799 43.3063 122.799 41.3457V40.8933C122.799 38.9542 122.389 37.4245 121.571 36.3042C120.752 35.1838 119.632 34.6236 118.21 34.6236Z" fill="#678D67"/>
<path d="M133.819 49.813H130.814V25.5747H133.819V34.7852H133.948C135.306 32.8677 137.148 31.9089 139.475 31.9089C141.22 31.9089 142.599 32.4799 143.611 33.6218C144.603 34.7852 145.098 36.3796 145.098 38.4048V49.813H142.092V38.8573C142.092 35.9918 140.864 34.559 138.408 34.559C137.029 34.559 135.92 35.0438 135.08 36.0133C134.239 36.9397 133.819 38.1894 133.819 39.7622V49.813ZM158.251 50.3301C156.571 50.3301 155.106 49.9638 153.856 49.2313C152.607 48.4772 151.648 47.4322 150.98 46.0964C150.29 44.7391 149.946 43.1555 149.946 41.3457V40.7317C149.946 38.965 150.28 37.4137 150.948 36.0779C151.637 34.7637 152.596 33.7403 153.824 33.0077C155.052 32.2752 156.485 31.9089 158.122 31.9089C159.587 31.9089 160.869 32.2213 161.968 32.8462C163.045 33.4925 163.885 34.3974 164.489 35.5609C165.092 36.7027 165.394 38.0493 165.394 39.6006C165.394 40.0099 165.383 40.4193 165.361 40.8286C165.34 41.2165 165.297 41.5935 165.232 41.9598H151.82V39.5683H162.42V39.5036C162.42 37.9739 162.033 36.7674 161.257 35.884C160.481 35.0007 159.426 34.559 158.09 34.559C156.517 34.559 155.257 35.1192 154.309 36.2395C153.382 37.3383 152.919 38.8573 152.919 40.7963V41.2811C152.919 43.2202 153.404 44.7606 154.373 45.9025C155.343 47.0444 156.657 47.6154 158.316 47.6154C160.32 47.6154 161.839 46.7105 162.873 44.9007L165.297 46.4519C164.543 47.7446 163.584 48.7142 162.42 49.3605C161.257 50.0069 159.867 50.3301 158.251 50.3301ZM180.809 50.3301C178.956 50.3301 177.502 49.7914 176.446 48.7142C175.391 47.6369 174.863 46.1503 174.863 44.2543V25.5747H177.868V43.9312C177.868 46.3227 178.902 47.5184 180.971 47.5184C181.574 47.5184 182.123 47.4107 182.619 47.1952C183.115 46.9582 183.642 46.5812 184.203 46.0641L185.948 48.3587C185.237 49.0266 184.45 49.5221 183.589 49.8453C182.727 50.1685 181.8 50.3301 180.809 50.3301ZM176.446 28.1924H169.757V25.5747H176.446V28.1924ZM198.358 31.8766C199.78 31.8766 201.008 32.2537 202.042 33.0077C203.098 33.7618 203.916 34.8068 204.498 36.1426C205.101 37.4784 205.403 39.0404 205.403 40.8286V41.4104C205.403 43.1771 205.112 44.7391 204.53 46.0964C203.97 47.4322 203.184 48.4772 202.171 49.2313C201.159 49.9638 199.963 50.3301 198.584 50.3301C197.377 50.3301 196.322 50.0608 195.417 49.5221C194.512 48.9619 193.769 48.1971 193.187 47.2276H193.09V56.6643H190.052V32.426H192.831V35.27H192.961C193.499 34.2143 194.232 33.3848 195.158 32.7815C196.085 32.1783 197.151 31.8766 198.358 31.8766ZM197.711 34.6236C196.268 34.6236 195.115 35.1946 194.253 36.3365C193.392 37.4784 192.961 39.0081 192.961 40.9256V41.3134C192.961 43.2309 193.392 44.7606 194.253 45.9025C195.115 47.0444 196.268 47.6154 197.711 47.6154C199.155 47.6154 200.275 47.0552 201.072 45.9349C201.891 44.836 202.3 43.3063 202.3 41.3457V40.8933C202.3 38.9327 201.891 37.3922 201.072 36.2718C200.254 35.173 199.133 34.6236 197.711 34.6236ZM218.039 50.3301C216.359 50.3301 214.894 49.9638 213.644 49.2313C212.394 48.4772 211.436 47.4322 210.768 46.0964C210.078 44.7391 209.734 43.1555 209.734 41.3457V40.7317C209.734 38.9434 210.068 37.3922 210.735 36.0779C211.425 34.7637 212.384 33.7403 213.612 33.0077C214.84 32.2537 216.273 31.8766 217.91 31.8766C219.375 31.8766 220.657 32.1998 221.756 32.8462C222.833 33.471 223.673 34.3651 224.277 35.5285C224.88 36.692 225.181 38.0493 225.181 39.6006C225.181 40.0099 225.171 40.4193 225.149 40.8286C225.128 41.2165 225.085 41.5935 225.02 41.9598H211.608V39.5683H222.208V39.5036C222.208 37.9739 221.82 36.7674 221.045 35.884C220.269 35.0007 219.213 34.559 217.878 34.559C216.305 34.559 215.044 35.1084 214.096 36.2072C213.17 37.3276 212.707 38.8573 212.707 40.7963V41.2811C212.707 43.2202 213.192 44.7606 214.161 45.9025C215.131 47.0444 216.445 47.6154 218.104 47.6154C220.108 47.6154 221.627 46.7105 222.661 44.9007L225.085 46.4519C224.33 47.7446 223.372 48.7142 222.208 49.3605C221.045 50.0069 219.655 50.3301 218.039 50.3301ZM236.363 48.8111H233.455V32.426H236.105V36.0133H236.234C236.773 34.699 237.527 33.6864 238.496 32.9754C239.466 32.2429 240.565 31.8766 241.793 31.8766C242.698 31.8766 243.484 32.0598 244.152 32.426C244.841 32.7708 245.488 33.3202 246.091 34.0742L243.926 36.4981C243.43 35.8733 242.913 35.4316 242.375 35.173C241.836 34.9145 241.222 34.7852 240.532 34.7852C239.24 34.7852 238.216 35.3131 237.462 36.3688C236.73 37.4245 236.363 38.8788 236.363 40.7317V48.8111ZM242.019 49.813H229.286V47.3568H242.019V49.813ZM234.844 34.8822H229.609V32.4583H234.844V34.8822Z" fill="#013401"/>
</g>
<path d="M1037.23 46H1034.82V41.0703H1030.3V46H1027.87V34.5781H1030.3V39.0547H1034.82V34.5781H1037.23V46ZM1047.87 41.6172C1047.87 42.3464 1047.78 42.9922 1047.58 43.5547C1047.38 44.1172 1047.1 44.5938 1046.73 44.9844C1046.36 45.3698 1045.91 45.6615 1045.38 45.8594C1044.86 46.0573 1044.27 46.1562 1043.62 46.1562C1043 46.1562 1042.44 46.0573 1041.92 45.8594C1041.41 45.6615 1040.97 45.3698 1040.58 44.9844C1040.21 44.5938 1039.92 44.1172 1039.71 43.5547C1039.51 42.9922 1039.41 42.3464 1039.41 41.6172C1039.41 40.6484 1039.58 39.8281 1039.92 39.1562C1040.26 38.4844 1040.75 37.974 1041.39 37.625C1042.03 37.276 1042.78 37.1016 1043.66 37.1016C1044.48 37.1016 1045.2 37.276 1045.83 37.625C1046.47 37.974 1046.97 38.4844 1047.33 39.1562C1047.69 39.8281 1047.87 40.6484 1047.87 41.6172ZM1041.83 41.6172C1041.83 42.1901 1041.9 42.6719 1042.02 43.0625C1042.15 43.4531 1042.34 43.7474 1042.61 43.9453C1042.87 44.1432 1043.22 44.2422 1043.65 44.2422C1044.07 44.2422 1044.41 44.1432 1044.67 43.9453C1044.94 43.7474 1045.13 43.4531 1045.25 43.0625C1045.37 42.6719 1045.44 42.1901 1045.44 41.6172C1045.44 41.0391 1045.37 40.5599 1045.25 40.1797C1045.13 39.7943 1044.94 39.5052 1044.67 39.3125C1044.41 39.1198 1044.06 39.0234 1043.63 39.0234C1043 39.0234 1042.54 39.2396 1042.26 39.6719C1041.98 40.1042 1041.83 40.7526 1041.83 41.6172ZM1060.1 37.1016C1061.09 37.1016 1061.84 37.3568 1062.34 37.8672C1062.85 38.3724 1063.11 39.1849 1063.11 40.3047V46H1060.72V40.8984C1060.72 40.2734 1060.61 39.8021 1060.4 39.4844C1060.18 39.1667 1059.85 39.0078 1059.41 39.0078C1058.78 39.0078 1058.33 39.2344 1058.06 39.6875C1057.8 40.1354 1057.66 40.7786 1057.66 41.6172V46H1055.28V40.8984C1055.28 40.4818 1055.23 40.1328 1055.14 39.8516C1055.05 39.5703 1054.9 39.3594 1054.71 39.2188C1054.52 39.0781 1054.27 39.0078 1053.97 39.0078C1053.53 39.0078 1053.18 39.1198 1052.92 39.3438C1052.67 39.5625 1052.49 39.888 1052.38 40.3203C1052.28 40.7474 1052.23 41.2708 1052.23 41.8906V46H1049.84V37.2656H1051.66L1051.98 38.3828H1052.12C1052.29 38.0807 1052.51 37.8359 1052.78 37.6484C1053.05 37.4609 1053.35 37.3229 1053.67 37.2344C1053.99 37.1458 1054.32 37.1016 1054.66 37.1016C1055.3 37.1016 1055.84 37.2057 1056.28 37.4141C1056.73 37.6224 1057.07 37.9453 1057.31 38.3828H1057.52C1057.78 37.9349 1058.15 37.6094 1058.62 37.4062C1059.1 37.2031 1059.6 37.1016 1060.1 37.1016ZM1069.16 37.1016C1069.97 37.1016 1070.67 37.2578 1071.25 37.5703C1071.83 37.8776 1072.28 38.3255 1072.6 38.9141C1072.92 39.5026 1073.08 40.2214 1073.08 41.0703V42.2266H1067.44C1067.47 42.8984 1067.67 43.4271 1068.05 43.8125C1068.43 44.1927 1068.95 44.3828 1069.62 44.3828C1070.18 44.3828 1070.69 44.3255 1071.16 44.2109C1071.62 44.0964 1072.1 43.9245 1072.58 43.6953V45.5391C1072.15 45.7526 1071.7 45.9089 1071.23 46.0078C1070.76 46.1068 1070.19 46.1562 1069.51 46.1562C1068.64 46.1562 1067.86 45.9948 1067.19 45.6719C1066.51 45.349 1065.99 44.8568 1065.6 44.1953C1065.22 43.5339 1065.03 42.7005 1065.03 41.6953C1065.03 40.6745 1065.2 39.8255 1065.55 39.1484C1065.89 38.4661 1066.38 37.9557 1067 37.6172C1067.62 37.2734 1068.34 37.1016 1069.16 37.1016ZM1069.18 38.7969C1068.72 38.7969 1068.33 38.9453 1068.02 39.2422C1067.72 39.5391 1067.55 40.0052 1067.5 40.6406H1070.84C1070.84 40.2865 1070.77 39.9714 1070.65 39.6953C1070.53 39.4193 1070.35 39.2005 1070.1 39.0391C1069.86 38.8776 1069.55 38.7969 1069.18 38.7969Z" fill="#0D5794"/>
<path d="M1098.52 46L1097.69 43.2812H1093.53L1092.7 46H1090.09L1094.12 34.5312H1097.08L1101.13 46H1098.52ZM1097.11 41.25L1096.29 38.5938C1096.23 38.4167 1096.16 38.1901 1096.08 37.9141C1095.99 37.6328 1095.91 37.349 1095.82 37.0625C1095.73 36.7708 1095.67 36.5182 1095.61 36.3047C1095.56 36.5182 1095.49 36.7839 1095.4 37.1016C1095.31 37.4141 1095.22 37.7109 1095.14 37.9922C1095.05 38.2734 1094.99 38.474 1094.96 38.5938L1094.14 41.25H1097.11ZM1104.77 33.8438V36.6719C1104.77 37 1104.76 37.3255 1104.74 37.6484C1104.72 37.9714 1104.7 38.2214 1104.68 38.3984H1104.77C1105 38.0391 1105.31 37.7344 1105.71 37.4844C1106.1 37.2292 1106.62 37.1016 1107.25 37.1016C1108.23 37.1016 1109.02 37.4844 1109.63 38.25C1110.24 39.0156 1110.54 40.138 1110.54 41.6172C1110.54 42.612 1110.4 43.4479 1110.12 44.125C1109.84 44.7969 1109.45 45.3047 1108.94 45.6484C1108.44 45.987 1107.85 46.1562 1107.19 46.1562C1106.54 46.1562 1106.04 46.0417 1105.67 45.8125C1105.3 45.5833 1105 45.3255 1104.77 45.0391H1104.61L1104.21 46H1102.39V33.8438H1104.77ZM1106.48 39.0078C1106.07 39.0078 1105.73 39.0938 1105.49 39.2656C1105.24 39.4375 1105.07 39.6953 1104.95 40.0391C1104.84 40.3828 1104.78 40.8177 1104.77 41.3438V41.6016C1104.77 42.4505 1104.9 43.1016 1105.15 43.5547C1105.4 44.0026 1105.85 44.2266 1106.51 44.2266C1107 44.2266 1107.39 44 1107.68 43.5469C1107.97 43.0938 1108.11 42.4401 1108.11 41.5859C1108.11 40.7318 1107.97 40.0885 1107.68 39.6562C1107.39 39.224 1106.99 39.0078 1106.48 39.0078ZM1120.45 41.6172C1120.45 42.3464 1120.35 42.9922 1120.15 43.5547C1119.96 44.1172 1119.68 44.5938 1119.3 44.9844C1118.93 45.3698 1118.48 45.6615 1117.96 45.8594C1117.44 46.0573 1116.85 46.1562 1116.19 46.1562C1115.58 46.1562 1115.01 46.0573 1114.5 45.8594C1113.99 45.6615 1113.54 45.3698 1113.16 44.9844C1112.79 44.5938 1112.49 44.1172 1112.29 43.5547C1112.08 42.9922 1111.98 42.3464 1111.98 41.6172C1111.98 40.6484 1112.15 39.8281 1112.5 39.1562C1112.84 38.4844 1113.33 37.974 1113.97 37.625C1114.6 37.276 1115.36 37.1016 1116.24 37.1016C1117.06 37.1016 1117.78 37.276 1118.41 37.625C1119.05 37.974 1119.54 38.4844 1119.9 39.1562C1120.27 39.8281 1120.45 40.6484 1120.45 41.6172ZM1114.41 41.6172C1114.41 42.1901 1114.47 42.6719 1114.6 43.0625C1114.72 43.4531 1114.92 43.7474 1115.19 43.9453C1115.45 44.1432 1115.8 44.2422 1116.22 44.2422C1116.65 44.2422 1116.99 44.1432 1117.25 43.9453C1117.51 43.7474 1117.71 43.4531 1117.83 43.0625C1117.95 42.6719 1118.01 42.1901 1118.01 41.6172C1118.01 41.0391 1117.95 40.5599 1117.83 40.1797C1117.71 39.7943 1117.51 39.5052 1117.25 39.3125C1116.98 39.1198 1116.64 39.0234 1116.21 39.0234C1115.58 39.0234 1115.12 39.2396 1114.83 39.6719C1114.55 40.1042 1114.41 40.7526 1114.41 41.6172ZM1130.44 37.2656V46H1128.61L1128.29 44.8828H1128.16C1127.97 45.1797 1127.74 45.4219 1127.46 45.6094C1127.18 45.7969 1126.87 45.9349 1126.53 46.0234C1126.19 46.112 1125.84 46.1562 1125.47 46.1562C1124.85 46.1562 1124.3 46.0469 1123.84 45.8281C1123.38 45.6042 1123.02 45.2578 1122.76 44.7891C1122.5 44.3203 1122.37 43.7109 1122.37 42.9609V37.2656H1124.76V42.3672C1124.76 42.9922 1124.87 43.4635 1125.09 43.7812C1125.32 44.099 1125.67 44.2578 1126.16 44.2578C1126.65 44.2578 1127.03 44.1484 1127.3 43.9297C1127.58 43.7057 1127.77 43.3802 1127.88 42.9531C1127.99 42.5208 1128.05 41.9948 1128.05 41.375V37.2656H1130.44ZM1136.61 44.2578C1136.88 44.2578 1137.13 44.2318 1137.37 44.1797C1137.62 44.1276 1137.87 44.0625 1138.11 43.9844V45.7578C1137.86 45.8724 1137.54 45.9661 1137.16 46.0391C1136.79 46.1172 1136.38 46.1562 1135.93 46.1562C1135.41 46.1562 1134.94 46.0729 1134.52 45.9062C1134.11 45.7344 1133.78 45.4401 1133.54 45.0234C1133.31 44.6016 1133.19 44.0156 1133.19 43.2656V39.0547H1132.05V38.0469L1133.36 37.25L1134.05 35.4062H1135.58V37.2656H1138.02V39.0547H1135.58V43.2656C1135.58 43.599 1135.67 43.849 1135.86 44.0156C1136.05 44.1771 1136.3 44.2578 1136.61 44.2578Z" fill="#0D5794"/>
<path d="M1161.26 36.4297C1160.8 36.4297 1160.38 36.5208 1160.02 36.7031C1159.67 36.8802 1159.37 37.138 1159.13 37.4766C1158.89 37.8151 1158.7 38.224 1158.58 38.7031C1158.45 39.1823 1158.39 39.7214 1158.39 40.3203C1158.39 41.1276 1158.49 41.8177 1158.69 42.3906C1158.89 42.9583 1159.2 43.3932 1159.63 43.6953C1160.05 43.9922 1160.59 44.1406 1161.26 44.1406C1161.72 44.1406 1162.19 44.0885 1162.65 43.9844C1163.12 43.8802 1163.63 43.7318 1164.17 43.5391V45.5703C1163.67 45.7786 1163.17 45.9271 1162.68 46.0156C1162.19 46.1094 1161.64 46.1562 1161.03 46.1562C1159.86 46.1562 1158.89 45.9141 1158.13 45.4297C1157.37 44.9401 1156.81 44.2578 1156.45 43.3828C1156.08 42.5026 1155.9 41.4766 1155.9 40.3047C1155.9 39.4401 1156.02 38.6484 1156.25 37.9297C1156.49 37.2109 1156.83 36.5885 1157.28 36.0625C1157.74 35.5365 1158.3 35.1302 1158.96 34.8438C1159.63 34.5573 1160.39 34.4141 1161.26 34.4141C1161.83 34.4141 1162.39 34.487 1162.96 34.6328C1163.53 34.7734 1164.08 34.9688 1164.6 35.2188L1163.82 37.1875C1163.39 36.9844 1162.96 36.8073 1162.53 36.6562C1162.1 36.5052 1161.68 36.4297 1161.26 36.4297ZM1174.36 41.6172C1174.36 42.3464 1174.26 42.9922 1174.06 43.5547C1173.87 44.1172 1173.59 44.5938 1173.21 44.9844C1172.84 45.3698 1172.39 45.6615 1171.87 45.8594C1171.35 46.0573 1170.76 46.1562 1170.1 46.1562C1169.49 46.1562 1168.92 46.0573 1168.41 45.8594C1167.9 45.6615 1167.45 45.3698 1167.07 44.9844C1166.7 44.5938 1166.4 44.1172 1166.2 43.5547C1165.99 42.9922 1165.89 42.3464 1165.89 41.6172C1165.89 40.6484 1166.06 39.8281 1166.41 39.1562C1166.75 38.4844 1167.24 37.974 1167.88 37.625C1168.51 37.276 1169.27 37.1016 1170.15 37.1016C1170.97 37.1016 1171.69 37.276 1172.32 37.625C1172.96 37.974 1173.45 38.4844 1173.81 39.1562C1174.18 39.8281 1174.36 40.6484 1174.36 41.6172ZM1168.32 41.6172C1168.32 42.1901 1168.38 42.6719 1168.51 43.0625C1168.63 43.4531 1168.83 43.7474 1169.09 43.9453C1169.36 44.1432 1169.71 44.2422 1170.13 44.2422C1170.56 44.2422 1170.9 44.1432 1171.16 43.9453C1171.42 43.7474 1171.62 43.4531 1171.74 43.0625C1171.86 42.6719 1171.92 42.1901 1171.92 41.6172C1171.92 41.0391 1171.86 40.5599 1171.74 40.1797C1171.62 39.7943 1171.42 39.5052 1171.16 39.3125C1170.89 39.1198 1170.55 39.0234 1170.12 39.0234C1169.49 39.0234 1169.03 39.2396 1168.74 39.6719C1168.46 40.1042 1168.32 40.7526 1168.32 41.6172ZM1181.29 37.1016C1182.22 37.1016 1182.97 37.3568 1183.54 37.8672C1184.11 38.3724 1184.39 39.1849 1184.39 40.3047V46H1182.01V40.8984C1182.01 40.2734 1181.89 39.8021 1181.67 39.4844C1181.44 39.1667 1181.09 39.0078 1180.6 39.0078C1179.87 39.0078 1179.38 39.2552 1179.11 39.75C1178.84 40.2448 1178.71 40.9583 1178.71 41.8906V46H1176.33V37.2656H1178.15L1178.47 38.3828H1178.6C1178.79 38.0807 1179.02 37.8359 1179.3 37.6484C1179.58 37.4609 1179.89 37.3229 1180.23 37.2344C1180.57 37.1458 1180.93 37.1016 1181.29 37.1016ZM1190.52 44.2578C1190.78 44.2578 1191.04 44.2318 1191.28 44.1797C1191.53 44.1276 1191.78 44.0625 1192.02 43.9844V45.7578C1191.77 45.8724 1191.45 45.9661 1191.07 46.0391C1190.7 46.1172 1190.28 46.1562 1189.84 46.1562C1189.32 46.1562 1188.85 46.0729 1188.43 45.9062C1188.02 45.7344 1187.69 45.4401 1187.45 45.0234C1187.22 44.6016 1187.1 44.0156 1187.1 43.2656V39.0547H1185.96V38.0469L1187.27 37.25L1187.96 35.4062H1189.49V37.2656H1191.93V39.0547H1189.49V43.2656C1189.49 43.599 1189.58 43.849 1189.77 44.0156C1189.96 44.1771 1190.21 44.2578 1190.52 44.2578ZM1197.38 37.0859C1198.55 37.0859 1199.45 37.3411 1200.07 37.8516C1200.7 38.362 1201.01 39.138 1201.01 40.1797V46H1199.34L1198.88 44.8125H1198.82C1198.57 45.125 1198.32 45.3802 1198.06 45.5781C1197.8 45.776 1197.5 45.9219 1197.16 46.0156C1196.82 46.1094 1196.41 46.1562 1195.92 46.1562C1195.41 46.1562 1194.94 46.0573 1194.53 45.8594C1194.13 45.6615 1193.81 45.3594 1193.57 44.9531C1193.34 44.5417 1193.22 44.0208 1193.22 43.3906C1193.22 42.4635 1193.55 41.7812 1194.2 41.3438C1194.85 40.901 1195.82 40.6562 1197.13 40.6094L1198.64 40.5625V40.1797C1198.64 39.7214 1198.52 39.3854 1198.28 39.1719C1198.04 38.9583 1197.71 38.8516 1197.28 38.8516C1196.86 38.8516 1196.45 38.9115 1196.04 39.0312C1195.63 39.151 1195.23 39.3021 1194.82 39.4844L1194.03 37.875C1194.5 37.6302 1195.01 37.4375 1195.59 37.2969C1196.17 37.1562 1196.76 37.0859 1197.38 37.0859ZM1198.64 41.9531L1197.72 41.9844C1196.95 42.0052 1196.41 42.1432 1196.11 42.3984C1195.81 42.6536 1195.67 42.9896 1195.67 43.4062C1195.67 43.7708 1195.77 44.0312 1195.99 44.1875C1196.2 44.3385 1196.48 44.4141 1196.82 44.4141C1197.33 44.4141 1197.76 44.263 1198.11 43.9609C1198.46 43.6589 1198.64 43.2292 1198.64 42.6719V41.9531ZM1207.02 46.1562C1206.15 46.1562 1205.42 46 1204.81 45.6875C1204.2 45.3698 1203.73 44.8802 1203.42 44.2188C1203.1 43.5573 1202.94 42.7109 1202.94 41.6797C1202.94 40.612 1203.12 39.7422 1203.48 39.0703C1203.84 38.3932 1204.34 37.8958 1204.99 37.5781C1205.63 37.2604 1206.38 37.1016 1207.23 37.1016C1207.83 37.1016 1208.35 37.1615 1208.79 37.2812C1209.23 37.3958 1209.62 37.5339 1209.95 37.6953L1209.24 39.5391C1208.87 39.388 1208.52 39.2656 1208.2 39.1719C1207.87 39.0729 1207.55 39.0234 1207.23 39.0234C1206.81 39.0234 1206.46 39.1224 1206.19 39.3203C1205.91 39.513 1205.71 39.8047 1205.57 40.1953C1205.44 40.5859 1205.37 41.0755 1205.37 41.6641C1205.37 42.2422 1205.44 42.7214 1205.59 43.1016C1205.73 43.4818 1205.94 43.7656 1206.22 43.9531C1206.5 44.1354 1206.83 44.2266 1207.23 44.2266C1207.72 44.2266 1208.16 44.1615 1208.55 44.0312C1208.93 43.8958 1209.31 43.7083 1209.67 43.4688V45.5078C1209.31 45.737 1208.93 45.901 1208.52 46C1208.13 46.1042 1207.63 46.1562 1207.02 46.1562ZM1215.38 44.2578C1215.64 44.2578 1215.9 44.2318 1216.14 44.1797C1216.39 44.1276 1216.64 44.0625 1216.88 43.9844V45.7578C1216.63 45.8724 1216.31 45.9661 1215.93 46.0391C1215.56 46.1172 1215.14 46.1562 1214.7 46.1562C1214.18 46.1562 1213.71 46.0729 1213.29 45.9062C1212.88 45.7344 1212.55 45.4401 1212.31 45.0234C1212.08 44.6016 1211.96 44.0156 1211.96 43.2656V39.0547H1210.82V38.0469L1212.13 37.25L1212.82 35.4062H1214.34V37.2656H1216.79V39.0547H1214.34V43.2656C1214.34 43.599 1214.44 43.849 1214.63 44.0156C1214.82 44.1771 1215.07 44.2578 1215.38 44.2578Z" fill="#0D5794"/>
<path d="M1238.86 34.5781C1240.33 34.5781 1241.41 34.8958 1242.08 35.5312C1242.76 36.1615 1243.1 37.0312 1243.1 38.1406C1243.1 38.6406 1243.02 39.1198 1242.87 39.5781C1242.72 40.0312 1242.47 40.4349 1242.13 40.7891C1241.79 41.1432 1241.34 41.4245 1240.77 41.6328C1240.2 41.8359 1239.5 41.9375 1238.67 41.9375H1237.63V46H1235.21V34.5781H1238.86ZM1238.73 36.5625H1237.63V39.9531H1238.43C1238.88 39.9531 1239.27 39.8932 1239.61 39.7734C1239.94 39.6536 1240.2 39.4661 1240.38 39.2109C1240.56 38.9557 1240.65 38.6276 1240.65 38.2266C1240.65 37.6641 1240.5 37.2474 1240.19 36.9766C1239.87 36.7005 1239.39 36.5625 1238.73 36.5625ZM1249.94 37.1016C1250.06 37.1016 1250.2 37.1094 1250.36 37.125C1250.52 37.1354 1250.65 37.151 1250.75 37.1719L1250.57 39.4062C1250.49 39.3802 1250.38 39.362 1250.23 39.3516C1250.09 39.3359 1249.97 39.3281 1249.87 39.3281C1249.56 39.3281 1249.26 39.3672 1248.97 39.4453C1248.68 39.5234 1248.42 39.651 1248.19 39.8281C1247.96 40 1247.78 40.2292 1247.65 40.5156C1247.52 40.7969 1247.45 41.1432 1247.45 41.5547V46H1245.07V37.2656H1246.87L1247.22 38.7344H1247.34C1247.51 38.4375 1247.73 38.1667 1247.98 37.9219C1248.24 37.6719 1248.54 37.474 1248.87 37.3281C1249.2 37.1771 1249.56 37.1016 1249.94 37.1016ZM1254.72 37.2656V46H1252.33V37.2656H1254.72ZM1253.53 33.8438C1253.88 33.8438 1254.19 33.9271 1254.44 34.0938C1254.7 34.2552 1254.83 34.5599 1254.83 35.0078C1254.83 35.4505 1254.7 35.7578 1254.44 35.9297C1254.19 36.0964 1253.88 36.1797 1253.53 36.1797C1253.17 36.1797 1252.86 36.0964 1252.61 35.9297C1252.36 35.7578 1252.23 35.4505 1252.23 35.0078C1252.23 34.5599 1252.36 34.2552 1252.61 34.0938C1252.86 33.9271 1253.17 33.8438 1253.53 33.8438ZM1260.77 46.1562C1259.91 46.1562 1259.17 46 1258.56 45.6875C1257.95 45.3698 1257.49 44.8802 1257.17 44.2188C1256.85 43.5573 1256.69 42.7109 1256.69 41.6797C1256.69 40.612 1256.87 39.7422 1257.23 39.0703C1257.6 38.3932 1258.1 37.8958 1258.74 37.5781C1259.39 37.2604 1260.13 37.1016 1260.98 37.1016C1261.59 37.1016 1262.11 37.1615 1262.55 37.2812C1262.99 37.3958 1263.37 37.5339 1263.7 37.6953L1263 39.5391C1262.62 39.388 1262.27 39.2656 1261.95 39.1719C1261.63 39.0729 1261.31 39.0234 1260.98 39.0234C1260.57 39.0234 1260.22 39.1224 1259.94 39.3203C1259.67 39.513 1259.46 39.8047 1259.33 40.1953C1259.19 40.5859 1259.12 41.0755 1259.12 41.6641C1259.12 42.2422 1259.2 42.7214 1259.34 43.1016C1259.49 43.4818 1259.7 43.7656 1259.97 43.9531C1260.25 44.1354 1260.59 44.2266 1260.98 44.2266C1261.48 44.2266 1261.92 44.1615 1262.3 44.0312C1262.69 43.8958 1263.06 43.7083 1263.43 43.4688V45.5078C1263.06 45.737 1262.68 45.901 1262.28 46C1261.88 46.1042 1261.38 46.1562 1260.77 46.1562ZM1267.84 37.2656V46H1265.46V37.2656H1267.84ZM1266.65 33.8438C1267.01 33.8438 1267.31 33.9271 1267.57 34.0938C1267.82 34.2552 1267.95 34.5599 1267.95 35.0078C1267.95 35.4505 1267.82 35.7578 1267.57 35.9297C1267.31 36.0964 1267.01 36.1797 1266.65 36.1797C1266.3 36.1797 1265.99 36.0964 1265.73 35.9297C1265.48 35.7578 1265.36 35.4505 1265.36 35.0078C1265.36 34.5599 1265.48 34.2552 1265.73 34.0938C1265.99 33.9271 1266.3 33.8438 1266.65 33.8438ZM1275.31 37.1016C1276.24 37.1016 1276.99 37.3568 1277.56 37.8672C1278.13 38.3724 1278.41 39.1849 1278.41 40.3047V46H1276.03V40.8984C1276.03 40.2734 1275.91 39.8021 1275.69 39.4844C1275.46 39.1667 1275.11 39.0078 1274.62 39.0078C1273.89 39.0078 1273.4 39.2552 1273.13 39.75C1272.87 40.2448 1272.73 40.9583 1272.73 41.8906V46H1270.35V37.2656H1272.17L1272.49 38.3828H1272.62C1272.81 38.0807 1273.04 37.8359 1273.32 37.6484C1273.6 37.4609 1273.91 37.3229 1274.25 37.2344C1274.59 37.1458 1274.95 37.1016 1275.31 37.1016ZM1283.42 49.8438C1282.2 49.8438 1281.27 49.6302 1280.62 49.2031C1279.98 48.7812 1279.66 48.1875 1279.66 47.4219C1279.66 46.8958 1279.83 46.4557 1280.15 46.1016C1280.48 45.7474 1280.96 45.4948 1281.6 45.3438C1281.36 45.2396 1281.14 45.0703 1280.96 44.8359C1280.78 44.5964 1280.69 44.3438 1280.69 44.0781C1280.69 43.7448 1280.78 43.4688 1280.97 43.25C1281.17 43.026 1281.45 42.8073 1281.81 42.5938C1281.35 42.3958 1280.99 42.0781 1280.72 41.6406C1280.45 41.2031 1280.32 40.6875 1280.32 40.0938C1280.32 39.4583 1280.46 38.9193 1280.73 38.4766C1281.01 38.0286 1281.42 37.6875 1281.95 37.4531C1282.49 37.2188 1283.14 37.1016 1283.9 37.1016C1284.07 37.1016 1284.25 37.112 1284.47 37.1328C1284.68 37.1536 1284.88 37.1771 1285.05 37.2031C1285.24 37.2292 1285.36 37.25 1285.42 37.2656H1288.47V38.4766L1287.1 38.8281C1287.22 39.0208 1287.32 39.2266 1287.38 39.4453C1287.44 39.6641 1287.47 39.8958 1287.47 40.1406C1287.47 41.0781 1287.15 41.8099 1286.49 42.3359C1285.84 42.8568 1284.93 43.1172 1283.77 43.1172C1283.5 43.1016 1283.24 43.0807 1282.99 43.0547C1282.87 43.1484 1282.78 43.2474 1282.72 43.3516C1282.65 43.4557 1282.62 43.5651 1282.62 43.6797C1282.62 43.7943 1282.67 43.8906 1282.76 43.9688C1282.86 44.0417 1283.01 44.099 1283.2 44.1406C1283.4 44.1771 1283.64 44.1953 1283.94 44.1953H1285.42C1286.38 44.1953 1287.11 44.401 1287.61 44.8125C1288.11 45.224 1288.37 45.8281 1288.37 46.625C1288.37 47.6458 1287.94 48.4375 1287.08 49C1286.24 49.5625 1285.01 49.8438 1283.42 49.8438ZM1283.52 48.2891C1284.09 48.2891 1284.58 48.2344 1284.98 48.125C1285.39 48.0208 1285.71 47.8698 1285.93 47.6719C1286.15 47.4792 1286.26 47.2474 1286.26 46.9766C1286.26 46.7578 1286.19 46.5833 1286.06 46.4531C1285.94 46.3281 1285.74 46.2396 1285.48 46.1875C1285.23 46.1354 1284.9 46.1094 1284.5 46.1094H1283.26C1282.97 46.1094 1282.71 46.1562 1282.47 46.25C1282.25 46.3438 1282.06 46.474 1281.93 46.6406C1281.79 46.8125 1281.72 47.0104 1281.72 47.2344C1281.72 47.5625 1281.88 47.8203 1282.19 48.0078C1282.51 48.1953 1282.95 48.2891 1283.52 48.2891ZM1283.9 41.6641C1284.35 41.6641 1284.68 41.526 1284.89 41.25C1285.1 40.974 1285.2 40.599 1285.2 40.125C1285.2 39.599 1285.09 39.2057 1284.87 38.9453C1284.66 38.6797 1284.34 38.5469 1283.9 38.5469C1283.47 38.5469 1283.14 38.6797 1282.92 38.9453C1282.7 39.2057 1282.59 39.599 1282.59 40.125C1282.59 40.599 1282.7 40.974 1282.91 41.25C1283.13 41.526 1283.46 41.6641 1283.9 41.6641Z" fill="#0D5794"/>
<path d="M1315.91 40.1797C1315.91 41.4661 1315.67 42.5417 1315.17 43.4062C1314.68 44.2656 1313.97 44.9141 1313.04 45.3516C1312.11 45.7839 1310.98 46 1309.67 46H1306.44V34.5781H1310.02C1311.22 34.5781 1312.26 34.7917 1313.14 35.2188C1314.02 35.6406 1314.7 36.2682 1315.19 37.1016C1315.67 37.9297 1315.91 38.9557 1315.91 40.1797ZM1313.4 40.2422C1313.4 39.3984 1313.27 38.7057 1313.02 38.1641C1312.78 37.6172 1312.41 37.2135 1311.93 36.9531C1311.45 36.6927 1310.86 36.5625 1310.15 36.5625H1308.86V44H1309.9C1311.08 44 1311.96 43.6849 1312.53 43.0547C1313.11 42.4245 1313.4 41.487 1313.4 40.2422ZM1321.7 37.1016C1322.5 37.1016 1323.2 37.2578 1323.78 37.5703C1324.36 37.8776 1324.82 38.3255 1325.13 38.9141C1325.45 39.5026 1325.61 40.2214 1325.61 41.0703V42.2266H1319.98C1320 42.8984 1320.2 43.4271 1320.58 43.8125C1320.96 44.1927 1321.48 44.3828 1322.16 44.3828C1322.71 44.3828 1323.22 44.3255 1323.69 44.2109C1324.15 44.0964 1324.63 43.9245 1325.12 43.6953V45.5391C1324.68 45.7526 1324.23 45.9089 1323.76 46.0078C1323.29 46.1068 1322.72 46.1562 1322.05 46.1562C1321.17 46.1562 1320.4 45.9948 1319.72 45.6719C1319.05 45.349 1318.52 44.8568 1318.13 44.1953C1317.75 43.5339 1317.56 42.7005 1317.56 41.6953C1317.56 40.6745 1317.73 39.8255 1318.08 39.1484C1318.43 38.4661 1318.91 37.9557 1319.53 37.6172C1320.15 37.2734 1320.87 37.1016 1321.7 37.1016ZM1321.71 38.7969C1321.25 38.7969 1320.86 38.9453 1320.55 39.2422C1320.25 39.5391 1320.08 40.0052 1320.03 40.6406H1323.38C1323.37 40.2865 1323.3 39.9714 1323.18 39.6953C1323.06 39.4193 1322.88 39.2005 1322.63 39.0391C1322.39 38.8776 1322.09 38.7969 1321.71 38.7969ZM1337.8 37.1016C1338.79 37.1016 1339.54 37.3568 1340.05 37.8672C1340.56 38.3724 1340.81 39.1849 1340.81 40.3047V46H1338.42V40.8984C1338.42 40.2734 1338.32 39.8021 1338.1 39.4844C1337.89 39.1667 1337.56 39.0078 1337.11 39.0078C1336.48 39.0078 1336.03 39.2344 1335.77 39.6875C1335.5 40.1354 1335.37 40.7786 1335.37 41.6172V46H1332.98V40.8984C1332.98 40.4818 1332.94 40.1328 1332.84 39.8516C1332.75 39.5703 1332.61 39.3594 1332.41 39.2188C1332.22 39.0781 1331.97 39.0078 1331.67 39.0078C1331.23 39.0078 1330.88 39.1198 1330.62 39.3438C1330.38 39.5625 1330.2 39.888 1330.09 40.3203C1329.98 40.7474 1329.93 41.2708 1329.93 41.8906V46H1327.55V37.2656H1329.37L1329.69 38.3828H1329.82C1330 38.0807 1330.22 37.8359 1330.48 37.6484C1330.76 37.4609 1331.05 37.3229 1331.38 37.2344C1331.7 37.1458 1332.03 37.1016 1332.36 37.1016C1333 37.1016 1333.54 37.2057 1333.98 37.4141C1334.43 37.6224 1334.78 37.9453 1335.02 38.3828H1335.23C1335.49 37.9349 1335.85 37.6094 1336.33 37.4062C1336.81 37.2031 1337.3 37.1016 1337.8 37.1016ZM1351.2 41.6172C1351.2 42.3464 1351.1 42.9922 1350.91 43.5547C1350.71 44.1172 1350.43 44.5938 1350.05 44.9844C1349.68 45.3698 1349.24 45.6615 1348.71 45.8594C1348.19 46.0573 1347.6 46.1562 1346.95 46.1562C1346.33 46.1562 1345.77 46.0573 1345.25 45.8594C1344.74 45.6615 1344.29 45.3698 1343.91 44.9844C1343.54 44.5938 1343.25 44.1172 1343.04 43.5547C1342.84 42.9922 1342.73 42.3464 1342.73 41.6172C1342.73 40.6484 1342.91 39.8281 1343.25 39.1562C1343.59 38.4844 1344.08 37.974 1344.72 37.625C1345.35 37.276 1346.11 37.1016 1346.99 37.1016C1347.81 37.1016 1348.53 37.276 1349.16 37.625C1349.8 37.974 1350.3 38.4844 1350.66 39.1562C1351.02 39.8281 1351.2 40.6484 1351.2 41.6172ZM1345.16 41.6172C1345.16 42.1901 1345.23 42.6719 1345.35 43.0625C1345.48 43.4531 1345.67 43.7474 1345.94 43.9453C1346.2 44.1432 1346.55 44.2422 1346.98 44.2422C1347.4 44.2422 1347.74 44.1432 1348 43.9453C1348.27 43.7474 1348.46 43.4531 1348.58 43.0625C1348.7 42.6719 1348.77 42.1901 1348.77 41.6172C1348.77 41.0391 1348.7 40.5599 1348.58 40.1797C1348.46 39.7943 1348.27 39.5052 1348 39.3125C1347.73 39.1198 1347.39 39.0234 1346.96 39.0234C1346.33 39.0234 1345.87 39.2396 1345.59 39.6719C1345.3 40.1042 1345.16 40.7526 1345.16 41.6172Z" fill="#0D5794"/>
<defs>
<clipPath id="clip0_1_486">
<rect width="159.34" height="40" fill="white" transform="translate(88 20)"/>
</clipPath>
</defs>
</svg>
